<mxfile host="app.diagrams.net" agent="Mozilla/5.0 (Windows NT 10.0; Win64; x64) AppleWebKit/537.36 (KHTML, like Gecko) Chrome/131.0.0.0 Safari/537.36" version="24.8.8">
  <diagram name="Halaman-1" id="eJJ_WKcxVRqObAdTv5le">
    <mxGraphModel dx="1588" dy="892" grid="1" gridSize="10" guides="1" tooltips="1" connect="1" arrows="1" fold="1" page="1" pageScale="1" pageWidth="3300" pageHeight="4681" background="#ffffff" math="0" shadow="0">
      <root>
        <object label="" id="0">
          <mxCell />
        </object>
        <mxCell id="1" parent="0" />
        <mxCell id="m-LSLCiGILIb_iJFjQq9-1" value="&lt;font style=&quot;vertical-align: inherit;&quot;&gt;&lt;font style=&quot;vertical-align: inherit;&quot;&gt;FLOWCHART PEMBELIAN MAKANAN MINUMAN&lt;/font&gt;&lt;/font&gt;" style="text;html=1;align=center;verticalAlign=middle;resizable=0;points=[];autosize=1;strokeColor=none;fillColor=none;fontSize=16;labelBackgroundColor=none;fontStyle=1;fontColor=#1D3557;" parent="1" vertex="1">
          <mxGeometry x="1888" y="20" width="380" height="30" as="geometry" />
        </mxCell>
        <mxCell id="m-LSLCiGILIb_iJFjQq9-5" style="edgeStyle=orthogonalEdgeStyle;rounded=0;orthogonalLoop=1;jettySize=auto;html=1;" parent="1" source="m-LSLCiGILIb_iJFjQq9-3" target="m-LSLCiGILIb_iJFjQq9-4" edge="1">
          <mxGeometry relative="1" as="geometry" />
        </mxCell>
        <mxCell id="m-LSLCiGILIb_iJFjQq9-3" value="&lt;font color=&quot;#000000&quot;&gt;START&lt;/font&gt;" style="strokeWidth=2;html=1;shape=mxgraph.flowchart.terminator;whiteSpace=wrap;align=center;fillColor=#A8DADC;strokeColor=#457B9D;fontStyle=1;labelBackgroundColor=none;fontColor=#1D3557;" parent="1" vertex="1">
          <mxGeometry x="2037.81" y="91" width="80" height="30" as="geometry" />
        </mxCell>
        <mxCell id="sF0zuf--0xOJBWbBseAl-1" style="edgeStyle=orthogonalEdgeStyle;rounded=0;orthogonalLoop=1;jettySize=auto;html=1;" parent="1" source="m-LSLCiGILIb_iJFjQq9-4" target="m-LSLCiGILIb_iJFjQq9-9" edge="1">
          <mxGeometry relative="1" as="geometry" />
        </mxCell>
        <mxCell id="m-LSLCiGILIb_iJFjQq9-4" value="&lt;font style=&quot;font-size: 10px;&quot;&gt;&amp;nbsp; &amp;nbsp;Output Pilihan:&lt;/font&gt;&lt;div&gt;&lt;font style=&quot;font-size: 10px;&quot;&gt;1. Daftar Akun&lt;/font&gt;&lt;/div&gt;&lt;div&gt;&lt;font style=&quot;font-size: 10px;&quot;&gt;2. Login&lt;/font&gt;&lt;/div&gt;&lt;div&gt;&lt;font style=&quot;font-size: 10px;&quot;&gt;3. Exit&lt;/font&gt;&lt;/div&gt;" style="shape=parallelogram;html=1;strokeWidth=2;perimeter=parallelogramPerimeter;whiteSpace=wrap;rounded=1;arcSize=12;size=0.23;align=center;fillColor=#A8DADC;strokeColor=#457B9D;labelBackgroundColor=none;fontColor=#1D3557;" parent="1" vertex="1">
          <mxGeometry x="2011" y="152" width="133.63" height="60" as="geometry" />
        </mxCell>
        <mxCell id="sF0zuf--0xOJBWbBseAl-3" style="edgeStyle=orthogonalEdgeStyle;rounded=0;orthogonalLoop=1;jettySize=auto;html=1;entryX=0.5;entryY=0;entryDx=0;entryDy=0;" parent="1" source="m-LSLCiGILIb_iJFjQq9-9" target="sF0zuf--0xOJBWbBseAl-5" edge="1">
          <mxGeometry relative="1" as="geometry">
            <mxPoint x="2261" y="350" as="targetPoint" />
          </mxGeometry>
        </mxCell>
        <mxCell id="sF0zuf--0xOJBWbBseAl-4" style="edgeStyle=orthogonalEdgeStyle;rounded=0;orthogonalLoop=1;jettySize=auto;html=1;" parent="1" source="m-LSLCiGILIb_iJFjQq9-9" target="sF0zuf--0xOJBWbBseAl-31" edge="1">
          <mxGeometry relative="1" as="geometry">
            <mxPoint x="1871" y="360" as="targetPoint" />
          </mxGeometry>
        </mxCell>
        <mxCell id="m-LSLCiGILIb_iJFjQq9-9" value="if = 1" style="strokeWidth=2;html=1;shape=mxgraph.flowchart.decision;whiteSpace=wrap;labelBackgroundColor=none;fillColor=#A8DADC;strokeColor=#457B9D;fontColor=#1D3557;align=center;" parent="1" vertex="1">
          <mxGeometry x="2024.8199999999997" y="244" width="106.37" height="60" as="geometry" />
        </mxCell>
        <mxCell id="m-LSLCiGILIb_iJFjQq9-10" value="true" style="text;html=1;align=center;verticalAlign=middle;resizable=0;points=[];autosize=1;strokeColor=none;fillColor=none;fontColor=#1D3557;" parent="1" vertex="1">
          <mxGeometry x="2144.63" y="241" width="40" height="30" as="geometry" />
        </mxCell>
        <mxCell id="m-LSLCiGILIb_iJFjQq9-11" value="false" style="text;html=1;align=center;verticalAlign=middle;resizable=0;points=[];autosize=1;strokeColor=none;fillColor=none;fontColor=#1D3557;" parent="1" vertex="1">
          <mxGeometry x="1950" y="241" width="50" height="30" as="geometry" />
        </mxCell>
        <mxCell id="sF0zuf--0xOJBWbBseAl-27" style="edgeStyle=orthogonalEdgeStyle;rounded=0;orthogonalLoop=1;jettySize=auto;html=1;entryX=0.5;entryY=0;entryDx=0;entryDy=0;" parent="1" source="sF0zuf--0xOJBWbBseAl-5" target="sF0zuf--0xOJBWbBseAl-25" edge="1">
          <mxGeometry relative="1" as="geometry" />
        </mxCell>
        <mxCell id="sF0zuf--0xOJBWbBseAl-5" value="&lt;span style=&quot;font-size: 11px;&quot;&gt;Output =&quot;Masukan&amp;nbsp;&lt;/span&gt;&lt;div&gt;&lt;span style=&quot;font-size: 11px;&quot;&gt;Username dan Pasword&lt;/span&gt;&lt;/div&gt;" style="shape=parallelogram;perimeter=parallelogramPerimeter;whiteSpace=wrap;html=1;fixedSize=1;fillColor=#A8DADC;strokeColor=#457B9D;fontColor=#1D3557;strokeWidth=2;labelBackgroundColor=none;align=center;" parent="1" vertex="1">
          <mxGeometry x="2191" y="335" width="150" height="60" as="geometry" />
        </mxCell>
        <mxCell id="sF0zuf--0xOJBWbBseAl-30" style="edgeStyle=orthogonalEdgeStyle;rounded=0;orthogonalLoop=1;jettySize=auto;html=1;" parent="1" source="sF0zuf--0xOJBWbBseAl-25" target="sF0zuf--0xOJBWbBseAl-48" edge="1">
          <mxGeometry relative="1" as="geometry">
            <mxPoint x="2266" y="527" as="targetPoint" />
          </mxGeometry>
        </mxCell>
        <mxCell id="sF0zuf--0xOJBWbBseAl-25" value="&lt;font style=&quot;font-size: 11px;&quot;&gt;Input = new_user&lt;/font&gt;&lt;div style=&quot;font-size: 11px;&quot;&gt;&lt;font style=&quot;font-size: 11px;&quot;&gt;Input = new_password&lt;/font&gt;&lt;span style=&quot;background-color: initial;&quot;&gt;&amp;nbsp;&lt;/span&gt;&lt;/div&gt;" style="shape=parallelogram;perimeter=parallelogramPerimeter;whiteSpace=wrap;html=1;fixedSize=1;fillColor=#A8DADC;strokeColor=#457B9D;fontColor=#1D3557;strokeWidth=2;labelBackgroundColor=none;align=center;" parent="1" vertex="1">
          <mxGeometry x="2194" y="433" width="143.63" height="60" as="geometry" />
        </mxCell>
        <mxCell id="sF0zuf--0xOJBWbBseAl-33" style="edgeStyle=orthogonalEdgeStyle;rounded=0;orthogonalLoop=1;jettySize=auto;html=1;entryX=0;entryY=0.75;entryDx=0;entryDy=0;" parent="1" source="sF0zuf--0xOJBWbBseAl-31" target="m-LSLCiGILIb_iJFjQq9-4" edge="1">
          <mxGeometry relative="1" as="geometry">
            <Array as="points">
              <mxPoint x="1791" y="362" />
              <mxPoint x="1791" y="195" />
            </Array>
          </mxGeometry>
        </mxCell>
        <mxCell id="sF0zuf--0xOJBWbBseAl-31" value="&lt;span style=&quot;font-size: 11px;&quot;&gt;Output =&quot;Username dan&lt;/span&gt;&lt;div&gt;&lt;span style=&quot;font-size: 11px;&quot;&gt;Paswaord&amp;nbsp;&lt;/span&gt;&lt;/div&gt;&lt;div&gt;&lt;span style=&quot;font-size: 11px; background-color: initial;&quot;&gt;sudah terdaftar&lt;/span&gt;&lt;/div&gt;" style="shape=parallelogram;perimeter=parallelogramPerimeter;whiteSpace=wrap;html=1;fixedSize=1;fillColor=#A8DADC;strokeColor=#457B9D;fontColor=#1D3557;strokeWidth=2;labelBackgroundColor=none;align=center;" parent="1" vertex="1">
          <mxGeometry x="1799" y="332" width="150" height="60" as="geometry" />
        </mxCell>
        <mxCell id="sF0zuf--0xOJBWbBseAl-35" style="edgeStyle=orthogonalEdgeStyle;rounded=0;orthogonalLoop=1;jettySize=auto;html=1;entryX=0.5;entryY=0;entryDx=0;entryDy=0;" parent="1" source="sF0zuf--0xOJBWbBseAl-37" target="sF0zuf--0xOJBWbBseAl-41" edge="1">
          <mxGeometry relative="1" as="geometry">
            <mxPoint x="2057" y="540" as="targetPoint" />
          </mxGeometry>
        </mxCell>
        <mxCell id="sF0zuf--0xOJBWbBseAl-36" style="edgeStyle=orthogonalEdgeStyle;rounded=0;orthogonalLoop=1;jettySize=auto;html=1;" parent="1" source="sF0zuf--0xOJBWbBseAl-37" target="sF0zuf--0xOJBWbBseAl-45" edge="1">
          <mxGeometry relative="1" as="geometry">
            <mxPoint x="1667" y="550" as="targetPoint" />
          </mxGeometry>
        </mxCell>
        <mxCell id="sF0zuf--0xOJBWbBseAl-37" value="if = 2" style="strokeWidth=2;html=1;shape=mxgraph.flowchart.decision;whiteSpace=wrap;labelBackgroundColor=none;fillColor=#A8DADC;strokeColor=#457B9D;fontColor=#1D3557;align=center;" parent="1" vertex="1">
          <mxGeometry x="1820.8199999999997" y="434" width="106.37" height="60" as="geometry" />
        </mxCell>
        <mxCell id="sF0zuf--0xOJBWbBseAl-38" value="true" style="text;html=1;align=center;verticalAlign=middle;resizable=0;points=[];autosize=1;strokeColor=none;fillColor=none;fontColor=#1D3557;" parent="1" vertex="1">
          <mxGeometry x="1940.63" y="431" width="40" height="30" as="geometry" />
        </mxCell>
        <mxCell id="sF0zuf--0xOJBWbBseAl-39" value="false" style="text;html=1;align=center;verticalAlign=middle;resizable=0;points=[];autosize=1;strokeColor=none;fillColor=none;fontColor=#1D3557;" parent="1" vertex="1">
          <mxGeometry x="1746" y="431" width="50" height="30" as="geometry" />
        </mxCell>
        <mxCell id="sF0zuf--0xOJBWbBseAl-40" style="edgeStyle=orthogonalEdgeStyle;rounded=0;orthogonalLoop=1;jettySize=auto;html=1;entryX=0.5;entryY=0;entryDx=0;entryDy=0;" parent="1" source="sF0zuf--0xOJBWbBseAl-41" target="sF0zuf--0xOJBWbBseAl-43" edge="1">
          <mxGeometry relative="1" as="geometry" />
        </mxCell>
        <mxCell id="sF0zuf--0xOJBWbBseAl-41" value="&lt;span style=&quot;font-size: 11px;&quot;&gt;Output =&quot;Masukan&amp;nbsp;&lt;/span&gt;&lt;div&gt;&lt;span style=&quot;font-size: 11px;&quot;&gt;Username dan Pasword&lt;/span&gt;&lt;/div&gt;" style="shape=parallelogram;perimeter=parallelogramPerimeter;whiteSpace=wrap;html=1;fixedSize=1;fillColor=#A8DADC;strokeColor=#457B9D;fontColor=#1D3557;strokeWidth=2;labelBackgroundColor=none;align=center;" parent="1" vertex="1">
          <mxGeometry x="1987" y="525" width="150" height="60" as="geometry" />
        </mxCell>
        <mxCell id="sF0zuf--0xOJBWbBseAl-42" style="edgeStyle=orthogonalEdgeStyle;rounded=0;orthogonalLoop=1;jettySize=auto;html=1;" parent="1" source="sF0zuf--0xOJBWbBseAl-43" target="sF0zuf--0xOJBWbBseAl-50" edge="1">
          <mxGeometry relative="1" as="geometry">
            <mxPoint x="2062" y="717" as="targetPoint" />
            <Array as="points" />
          </mxGeometry>
        </mxCell>
        <mxCell id="sF0zuf--0xOJBWbBseAl-43" value="&lt;font style=&quot;font-size: 11px;&quot;&gt;Input = Username&lt;/font&gt;&lt;div style=&quot;font-size: 11px;&quot;&gt;&lt;font style=&quot;font-size: 11px;&quot;&gt;Input = Pasword&lt;/font&gt;&lt;span style=&quot;background-color: initial;&quot;&gt;&amp;nbsp;&lt;/span&gt;&lt;/div&gt;" style="shape=parallelogram;perimeter=parallelogramPerimeter;whiteSpace=wrap;html=1;fixedSize=1;fillColor=#A8DADC;strokeColor=#457B9D;fontColor=#1D3557;strokeWidth=2;labelBackgroundColor=none;align=center;" parent="1" vertex="1">
          <mxGeometry x="1990" y="623" width="143.63" height="60" as="geometry" />
        </mxCell>
        <mxCell id="sF0zuf--0xOJBWbBseAl-54" style="edgeStyle=orthogonalEdgeStyle;rounded=0;orthogonalLoop=1;jettySize=auto;html=1;entryX=0;entryY=0.5;entryDx=0;entryDy=0;" parent="1" source="sF0zuf--0xOJBWbBseAl-45" target="m-LSLCiGILIb_iJFjQq9-4" edge="1">
          <mxGeometry relative="1" as="geometry">
            <Array as="points">
              <mxPoint x="1581" y="552" />
              <mxPoint x="1581" y="182" />
            </Array>
          </mxGeometry>
        </mxCell>
        <mxCell id="sF0zuf--0xOJBWbBseAl-45" value="&lt;span style=&quot;font-size: 11px;&quot;&gt;Output =&quot;Username dan&amp;nbsp;&lt;/span&gt;&lt;div&gt;&lt;span style=&quot;font-size: 11px;&quot;&gt;Password salah&quot;&lt;/span&gt;&lt;/div&gt;" style="shape=parallelogram;perimeter=parallelogramPerimeter;whiteSpace=wrap;html=1;fixedSize=1;fillColor=#A8DADC;strokeColor=#457B9D;fontColor=#1D3557;strokeWidth=2;labelBackgroundColor=none;align=center;" parent="1" vertex="1">
          <mxGeometry x="1595" y="522" width="150" height="60" as="geometry" />
        </mxCell>
        <mxCell id="sF0zuf--0xOJBWbBseAl-46" style="edgeStyle=orthogonalEdgeStyle;rounded=0;orthogonalLoop=1;jettySize=auto;html=1;entryX=0.5;entryY=0;entryDx=0;entryDy=0;entryPerimeter=0;" parent="1" source="sF0zuf--0xOJBWbBseAl-31" target="sF0zuf--0xOJBWbBseAl-37" edge="1">
          <mxGeometry relative="1" as="geometry" />
        </mxCell>
        <mxCell id="sF0zuf--0xOJBWbBseAl-47" value="&lt;span style=&quot;font-size: 11px;&quot;&gt;Output =&quot;Akun berhasil&amp;nbsp;&lt;/span&gt;&lt;div&gt;&lt;span style=&quot;font-size: 11px;&quot;&gt;dibuat dengan ID&lt;/span&gt;&lt;/div&gt;&lt;div&gt;&lt;span style=&quot;font-size: 11px;&quot;&gt;{Username,Pasword}&amp;nbsp;&lt;/span&gt;&lt;/div&gt;&lt;div&gt;&lt;span style=&quot;font-size: 11px;&quot;&gt;dengan status pembeli&lt;/span&gt;&lt;/div&gt;" style="shape=parallelogram;perimeter=parallelogramPerimeter;whiteSpace=wrap;html=1;fixedSize=1;fillColor=#A8DADC;strokeColor=#457B9D;fontColor=#1D3557;strokeWidth=2;labelBackgroundColor=none;align=center;" parent="1" vertex="1">
          <mxGeometry x="2190.8199999999997" y="623" width="150" height="77" as="geometry" />
        </mxCell>
        <mxCell id="sF0zuf--0xOJBWbBseAl-49" value="" style="edgeStyle=orthogonalEdgeStyle;rounded=0;orthogonalLoop=1;jettySize=auto;html=1;" parent="1" source="sF0zuf--0xOJBWbBseAl-48" target="sF0zuf--0xOJBWbBseAl-47" edge="1">
          <mxGeometry relative="1" as="geometry" />
        </mxCell>
        <mxCell id="sF0zuf--0xOJBWbBseAl-48" value="status = Pembeli" style="whiteSpace=wrap;html=1;fillColor=#A8DADC;strokeColor=#457B9D;fontColor=#1D3557;strokeWidth=2;labelBackgroundColor=none;" parent="1" vertex="1">
          <mxGeometry x="2206" y="527" width="120" height="60" as="geometry" />
        </mxCell>
        <mxCell id="sF0zuf--0xOJBWbBseAl-53" style="edgeStyle=orthogonalEdgeStyle;rounded=0;orthogonalLoop=1;jettySize=auto;html=1;" parent="1" source="sF0zuf--0xOJBWbBseAl-50" target="sF0zuf--0xOJBWbBseAl-52" edge="1">
          <mxGeometry relative="1" as="geometry" />
        </mxCell>
        <mxCell id="sF0zuf--0xOJBWbBseAl-50" value="status = Pembeli,Penjual&amp;nbsp;" style="whiteSpace=wrap;html=1;fillColor=#A8DADC;strokeColor=#457B9D;fontColor=#1D3557;strokeWidth=2;labelBackgroundColor=none;" parent="1" vertex="1">
          <mxGeometry x="2001" y="718" width="120" height="60" as="geometry" />
        </mxCell>
        <mxCell id="uUv7gWZdldYS9aOSlYwy-1" style="edgeStyle=orthogonalEdgeStyle;rounded=0;orthogonalLoop=1;jettySize=auto;html=1;" parent="1" source="sF0zuf--0xOJBWbBseAl-52" edge="1">
          <mxGeometry relative="1" as="geometry">
            <mxPoint x="1890" y="845.5" as="targetPoint" />
          </mxGeometry>
        </mxCell>
        <mxCell id="sF0zuf--0xOJBWbBseAl-52" value="&lt;span style=&quot;font-size: 11px;&quot;&gt;Output = &quot;Login berhasil&amp;nbsp;&lt;/span&gt;&lt;div&gt;&lt;span style=&quot;font-size: 11px;&quot;&gt;dengan status{pembeli,penjual}&quot;&lt;/span&gt;&lt;/div&gt;" style="shape=parallelogram;perimeter=parallelogramPerimeter;whiteSpace=wrap;html=1;fixedSize=1;fillColor=#A8DADC;strokeColor=#457B9D;fontColor=#1D3557;strokeWidth=2;labelBackgroundColor=none;align=center;" parent="1" vertex="1">
          <mxGeometry x="1983" y="811" width="154.63" height="69" as="geometry" />
        </mxCell>
        <mxCell id="sF0zuf--0xOJBWbBseAl-55" style="edgeStyle=orthogonalEdgeStyle;rounded=0;orthogonalLoop=1;jettySize=auto;html=1;entryX=0.5;entryY=0;entryDx=0;entryDy=0;" parent="1" source="sF0zuf--0xOJBWbBseAl-57" target="sF0zuf--0xOJBWbBseAl-61" edge="1">
          <mxGeometry relative="1" as="geometry">
            <mxPoint x="1853" y="733" as="targetPoint" />
          </mxGeometry>
        </mxCell>
        <mxCell id="sF0zuf--0xOJBWbBseAl-56" style="edgeStyle=orthogonalEdgeStyle;rounded=0;orthogonalLoop=1;jettySize=auto;html=1;" parent="1" source="sF0zuf--0xOJBWbBseAl-57" edge="1">
          <mxGeometry relative="1" as="geometry">
            <mxPoint x="1466" y="715" as="targetPoint" />
          </mxGeometry>
        </mxCell>
        <mxCell id="sF0zuf--0xOJBWbBseAl-57" value="if = 3" style="strokeWidth=2;html=1;shape=mxgraph.flowchart.decision;whiteSpace=wrap;labelBackgroundColor=none;fillColor=#A8DADC;strokeColor=#457B9D;fontColor=#1D3557;align=center;" parent="1" vertex="1">
          <mxGeometry x="1616.8199999999997" y="627" width="106.37" height="60" as="geometry" />
        </mxCell>
        <mxCell id="sF0zuf--0xOJBWbBseAl-58" value="true" style="text;html=1;align=center;verticalAlign=middle;resizable=0;points=[];autosize=1;strokeColor=none;fillColor=none;fontColor=#1D3557;" parent="1" vertex="1">
          <mxGeometry x="1736.63" y="624" width="40" height="30" as="geometry" />
        </mxCell>
        <mxCell id="sF0zuf--0xOJBWbBseAl-59" value="false" style="text;html=1;align=center;verticalAlign=middle;resizable=0;points=[];autosize=1;strokeColor=none;fillColor=none;fontColor=#1D3557;" parent="1" vertex="1">
          <mxGeometry x="1542" y="624" width="50" height="30" as="geometry" />
        </mxCell>
        <mxCell id="sF0zuf--0xOJBWbBseAl-61" value="&lt;span style=&quot;font-size: 11px;&quot;&gt;Output =&quot;Terimkasih sudah&lt;/span&gt;&lt;div&gt;&lt;span style=&quot;font-size: 11px;&quot;&gt;mau membeli semoga&amp;nbsp;&lt;/span&gt;&lt;/div&gt;&lt;div&gt;&lt;span style=&quot;font-size: 11px;&quot;&gt;harimu meyenangkan&quot;&lt;/span&gt;&lt;/div&gt;" style="shape=parallelogram;perimeter=parallelogramPerimeter;whiteSpace=wrap;html=1;fixedSize=1;fillColor=#A8DADC;strokeColor=#457B9D;fontColor=#1D3557;strokeWidth=2;labelBackgroundColor=none;align=center;" parent="1" vertex="1">
          <mxGeometry x="1755" y="718" width="162" height="62" as="geometry" />
        </mxCell>
        <mxCell id="sF0zuf--0xOJBWbBseAl-69" style="edgeStyle=orthogonalEdgeStyle;rounded=0;orthogonalLoop=1;jettySize=auto;html=1;entryX=0.5;entryY=0;entryDx=0;entryDy=0;entryPerimeter=0;" parent="1" source="sF0zuf--0xOJBWbBseAl-45" target="sF0zuf--0xOJBWbBseAl-57" edge="1">
          <mxGeometry relative="1" as="geometry" />
        </mxCell>
        <mxCell id="sF0zuf--0xOJBWbBseAl-70" style="edgeStyle=orthogonalEdgeStyle;rounded=0;orthogonalLoop=1;jettySize=auto;html=1;entryX=0;entryY=0.5;entryDx=0;entryDy=0;" parent="1" source="sF0zuf--0xOJBWbBseAl-72" target="sF0zuf--0xOJBWbBseAl-77" edge="1">
          <mxGeometry relative="1" as="geometry">
            <mxPoint x="2251" y="953" as="targetPoint" />
            <Array as="points" />
          </mxGeometry>
        </mxCell>
        <mxCell id="sF0zuf--0xOJBWbBseAl-72" value="Status = Penjual" style="strokeWidth=2;html=1;shape=mxgraph.flowchart.decision;whiteSpace=wrap;labelBackgroundColor=none;fillColor=#A8DADC;strokeColor=#457B9D;fontColor=#1D3557;align=center;" parent="1" vertex="1">
          <mxGeometry x="1994.88" y="916" width="131.19" height="74" as="geometry" />
        </mxCell>
        <mxCell id="sF0zuf--0xOJBWbBseAl-76" style="edgeStyle=orthogonalEdgeStyle;rounded=0;orthogonalLoop=1;jettySize=auto;html=1;entryX=0.5;entryY=0;entryDx=0;entryDy=0;entryPerimeter=0;" parent="1" source="sF0zuf--0xOJBWbBseAl-52" target="sF0zuf--0xOJBWbBseAl-72" edge="1">
          <mxGeometry relative="1" as="geometry" />
        </mxCell>
        <mxCell id="sF0zuf--0xOJBWbBseAl-81" style="edgeStyle=orthogonalEdgeStyle;rounded=0;orthogonalLoop=1;jettySize=auto;html=1;" parent="1" source="sF0zuf--0xOJBWbBseAl-77" target="sF0zuf--0xOJBWbBseAl-80" edge="1">
          <mxGeometry relative="1" as="geometry" />
        </mxCell>
        <mxCell id="sF0zuf--0xOJBWbBseAl-77" value="&lt;font face=&quot;Verdana&quot;&gt;Output =&amp;nbsp;&lt;/font&gt;&lt;div&gt;&lt;font face=&quot;Gwa8SxlCsdu1uKtJ1fb-&quot;&gt;&quot; Sistem Penjual&lt;/font&gt;&lt;/div&gt;&lt;div&gt;&lt;font face=&quot;Gwa8SxlCsdu1uKtJ1fb-&quot;&gt;1. Tambah makanan/minuman&lt;/font&gt;&lt;/div&gt;&lt;div&gt;&lt;font face=&quot;Gwa8SxlCsdu1uKtJ1fb-&quot;&gt;2. Ubah makanan/minuman&lt;/font&gt;&lt;/div&gt;&lt;div&gt;&lt;font face=&quot;Gwa8SxlCsdu1uKtJ1fb-&quot;&gt;3. Hapus makanan/minuman&lt;/font&gt;&lt;/div&gt;&lt;div&gt;&lt;span style=&quot;background-color: initial;&quot;&gt;&lt;font face=&quot;Gwa8SxlCsdu1uKtJ1fb-&quot;&gt;4. Lihat menu&lt;/font&gt;&lt;/span&gt;&lt;/div&gt;&lt;div&gt;&lt;font face=&quot;Gwa8SxlCsdu1uKtJ1fb-&quot;&gt;5. Keluar&quot;&lt;/font&gt;&lt;/div&gt;" style="shape=parallelogram;perimeter=parallelogramPerimeter;whiteSpace=wrap;html=1;fixedSize=1;fillColor=#A8DADC;strokeColor=#457B9D;fontColor=#1D3557;strokeWidth=2;labelBackgroundColor=none;align=center;" parent="1" vertex="1">
          <mxGeometry x="2187" y="898.3199999999999" width="180" height="109.37" as="geometry" />
        </mxCell>
        <mxCell id="sF0zuf--0xOJBWbBseAl-80" value="Input = 1/2/3/4/5" style="shape=parallelogram;perimeter=parallelogramPerimeter;whiteSpace=wrap;html=1;fixedSize=1;fillColor=#A8DADC;strokeColor=#457B9D;fontColor=#1D3557;strokeWidth=2;labelBackgroundColor=none;" parent="1" vertex="1">
          <mxGeometry x="2216" y="1047.0049999999999" width="120" height="60" as="geometry" />
        </mxCell>
        <mxCell id="sF0zuf--0xOJBWbBseAl-84" style="edgeStyle=orthogonalEdgeStyle;rounded=0;orthogonalLoop=1;jettySize=auto;html=1;entryX=0.5;entryY=0;entryDx=0;entryDy=0;" parent="1" source="sF0zuf--0xOJBWbBseAl-86" target="sF0zuf--0xOJBWbBseAl-89" edge="1">
          <mxGeometry relative="1" as="geometry">
            <mxPoint x="2459" y="1250" as="targetPoint" />
          </mxGeometry>
        </mxCell>
        <mxCell id="sF0zuf--0xOJBWbBseAl-85" style="edgeStyle=orthogonalEdgeStyle;rounded=0;orthogonalLoop=1;jettySize=auto;html=1;entryX=0.5;entryY=0;entryDx=0;entryDy=0;" parent="1" source="sF0zuf--0xOJBWbBseAl-86" target="sF0zuf--0xOJBWbBseAl-102" edge="1">
          <mxGeometry relative="1" as="geometry">
            <mxPoint x="2072" y="1232" as="targetPoint" />
          </mxGeometry>
        </mxCell>
        <mxCell id="sF0zuf--0xOJBWbBseAl-86" value="if = 1" style="strokeWidth=2;html=1;shape=mxgraph.flowchart.decision;whiteSpace=wrap;labelBackgroundColor=none;fillColor=#A8DADC;strokeColor=#457B9D;fontColor=#1D3557;align=center;" parent="1" vertex="1">
          <mxGeometry x="2222.8199999999997" y="1144" width="106.37" height="60" as="geometry" />
        </mxCell>
        <mxCell id="sF0zuf--0xOJBWbBseAl-87" value="true" style="text;html=1;align=center;verticalAlign=middle;resizable=0;points=[];autosize=1;strokeColor=none;fillColor=none;fontColor=#1D3557;" parent="1" vertex="1">
          <mxGeometry x="2342.63" y="1141" width="40" height="30" as="geometry" />
        </mxCell>
        <mxCell id="sF0zuf--0xOJBWbBseAl-88" value="false" style="text;html=1;align=center;verticalAlign=middle;resizable=0;points=[];autosize=1;strokeColor=none;fillColor=none;fontColor=#1D3557;" parent="1" vertex="1">
          <mxGeometry x="2148" y="1141" width="50" height="30" as="geometry" />
        </mxCell>
        <mxCell id="sF0zuf--0xOJBWbBseAl-93" style="edgeStyle=orthogonalEdgeStyle;rounded=0;orthogonalLoop=1;jettySize=auto;html=1;" parent="1" source="sF0zuf--0xOJBWbBseAl-89" target="sF0zuf--0xOJBWbBseAl-92" edge="1">
          <mxGeometry relative="1" as="geometry" />
        </mxCell>
        <mxCell id="sF0zuf--0xOJBWbBseAl-89" value="&lt;span style=&quot;font-size: 11px;&quot;&gt;Output =&quot;Masukan nama&amp;nbsp;&lt;/span&gt;&lt;div&gt;&lt;span style=&quot;background-color: initial; font-size: 11px;&quot;&gt;Makanan / Minuman &quot;&lt;/span&gt;&lt;/div&gt;" style="shape=parallelogram;perimeter=parallelogramPerimeter;whiteSpace=wrap;html=1;fixedSize=1;fillColor=#A8DADC;strokeColor=#457B9D;fontColor=#1D3557;strokeWidth=2;labelBackgroundColor=none;align=center;" parent="1" vertex="1">
          <mxGeometry x="2361" y="1235" width="162" height="62" as="geometry" />
        </mxCell>
        <mxCell id="sF0zuf--0xOJBWbBseAl-91" style="edgeStyle=orthogonalEdgeStyle;rounded=0;orthogonalLoop=1;jettySize=auto;html=1;entryX=0.5;entryY=0;entryDx=0;entryDy=0;entryPerimeter=0;" parent="1" source="sF0zuf--0xOJBWbBseAl-80" target="sF0zuf--0xOJBWbBseAl-86" edge="1">
          <mxGeometry relative="1" as="geometry" />
        </mxCell>
        <mxCell id="sF0zuf--0xOJBWbBseAl-97" style="edgeStyle=orthogonalEdgeStyle;rounded=0;orthogonalLoop=1;jettySize=auto;html=1;" parent="1" source="sF0zuf--0xOJBWbBseAl-92" target="sF0zuf--0xOJBWbBseAl-95" edge="1">
          <mxGeometry relative="1" as="geometry" />
        </mxCell>
        <mxCell id="sF0zuf--0xOJBWbBseAl-92" value="Input = nama" style="shape=parallelogram;perimeter=parallelogramPerimeter;whiteSpace=wrap;html=1;fixedSize=1;fillColor=#A8DADC;strokeColor=#457B9D;fontColor=#1D3557;strokeWidth=2;labelBackgroundColor=none;" parent="1" vertex="1">
          <mxGeometry x="2382" y="1330.0049999999999" width="120" height="60" as="geometry" />
        </mxCell>
        <mxCell id="sF0zuf--0xOJBWbBseAl-94" style="edgeStyle=orthogonalEdgeStyle;rounded=0;orthogonalLoop=1;jettySize=auto;html=1;" parent="1" source="sF0zuf--0xOJBWbBseAl-95" target="sF0zuf--0xOJBWbBseAl-96" edge="1">
          <mxGeometry relative="1" as="geometry" />
        </mxCell>
        <mxCell id="sF0zuf--0xOJBWbBseAl-95" value="&lt;span style=&quot;font-size: 11px;&quot;&gt;Output =&quot;Masukan harga&lt;/span&gt;&lt;div&gt;&lt;span style=&quot;background-color: initial; font-size: 11px;&quot;&gt;Makanan / Minuman &quot;&lt;/span&gt;&lt;/div&gt;" style="shape=parallelogram;perimeter=parallelogramPerimeter;whiteSpace=wrap;html=1;fixedSize=1;fillColor=#A8DADC;strokeColor=#457B9D;fontColor=#1D3557;strokeWidth=2;labelBackgroundColor=none;align=center;" parent="1" vertex="1">
          <mxGeometry x="2361" y="1420" width="162" height="62" as="geometry" />
        </mxCell>
        <mxCell id="sF0zuf--0xOJBWbBseAl-99" style="edgeStyle=orthogonalEdgeStyle;rounded=0;orthogonalLoop=1;jettySize=auto;html=1;entryX=0.5;entryY=0;entryDx=0;entryDy=0;" parent="1" source="sF0zuf--0xOJBWbBseAl-96" target="sF0zuf--0xOJBWbBseAl-98" edge="1">
          <mxGeometry relative="1" as="geometry" />
        </mxCell>
        <mxCell id="sF0zuf--0xOJBWbBseAl-96" value="Input = harga" style="shape=parallelogram;perimeter=parallelogramPerimeter;whiteSpace=wrap;html=1;fixedSize=1;fillColor=#A8DADC;strokeColor=#457B9D;fontColor=#1D3557;strokeWidth=2;labelBackgroundColor=none;" parent="1" vertex="1">
          <mxGeometry x="2382" y="1515.0049999999999" width="120" height="60" as="geometry" />
        </mxCell>
        <mxCell id="sF0zuf--0xOJBWbBseAl-101" value="" style="edgeStyle=orthogonalEdgeStyle;rounded=0;orthogonalLoop=1;jettySize=auto;html=1;" parent="1" source="sF0zuf--0xOJBWbBseAl-98" target="sF0zuf--0xOJBWbBseAl-100" edge="1">
          <mxGeometry relative="1" as="geometry" />
        </mxCell>
        <mxCell id="sF0zuf--0xOJBWbBseAl-98" value="menu = nama:harga&amp;nbsp;" style="whiteSpace=wrap;html=1;fillColor=#A8DADC;strokeColor=#457B9D;fontColor=#1D3557;strokeWidth=2;labelBackgroundColor=none;" parent="1" vertex="1">
          <mxGeometry x="2382" y="1610" width="120" height="60" as="geometry" />
        </mxCell>
        <mxCell id="sF0zuf--0xOJBWbBseAl-136" style="edgeStyle=orthogonalEdgeStyle;rounded=0;orthogonalLoop=1;jettySize=auto;html=1;entryX=1;entryY=1;entryDx=0;entryDy=0;" parent="1" source="sF0zuf--0xOJBWbBseAl-100" target="sF0zuf--0xOJBWbBseAl-77" edge="1">
          <mxGeometry relative="1" as="geometry">
            <Array as="points">
              <mxPoint x="2541" y="1731" />
              <mxPoint x="2541" y="997" />
            </Array>
          </mxGeometry>
        </mxCell>
        <mxCell id="sF0zuf--0xOJBWbBseAl-100" value="&lt;span style=&quot;font-size: 11px;&quot;&gt;Output =&quot;Makanan /&amp;nbsp;&lt;/span&gt;&lt;div&gt;&lt;span style=&quot;background-color: initial; font-size: 11px;&quot;&gt;Minuman berhasil&amp;nbsp;&lt;/span&gt;&lt;/div&gt;&lt;div&gt;&lt;span style=&quot;background-color: initial; font-size: 11px;&quot;&gt;ditambahkan &quot;&lt;/span&gt;&lt;/div&gt;" style="shape=parallelogram;perimeter=parallelogramPerimeter;whiteSpace=wrap;html=1;fixedSize=1;fillColor=#A8DADC;strokeColor=#457B9D;fontColor=#1D3557;strokeWidth=2;labelBackgroundColor=none;align=center;" parent="1" vertex="1">
          <mxGeometry x="2361" y="1700" width="162" height="62" as="geometry" />
        </mxCell>
        <mxCell id="sF0zuf--0xOJBWbBseAl-123" style="edgeStyle=orthogonalEdgeStyle;rounded=0;orthogonalLoop=1;jettySize=auto;html=1;" parent="1" source="sF0zuf--0xOJBWbBseAl-102" target="sF0zuf--0xOJBWbBseAl-107" edge="1">
          <mxGeometry relative="1" as="geometry" />
        </mxCell>
        <mxCell id="sF0zuf--0xOJBWbBseAl-102" value="&lt;span style=&quot;font-size: 11px;&quot;&gt;Output =&quot;Harap masukan&lt;/span&gt;&lt;div&gt;&lt;span style=&quot;background-color: initial; font-size: 11px;&quot;&gt;nilai&amp;nbsp; harga&amp;nbsp; yang valid&quot;&lt;/span&gt;&lt;/div&gt;" style="shape=parallelogram;perimeter=parallelogramPerimeter;whiteSpace=wrap;html=1;fixedSize=1;fillColor=#A8DADC;strokeColor=#457B9D;fontColor=#1D3557;strokeWidth=2;labelBackgroundColor=none;align=center;" parent="1" vertex="1">
          <mxGeometry x="1990" y="1235" width="162" height="62" as="geometry" />
        </mxCell>
        <mxCell id="sF0zuf--0xOJBWbBseAl-103" style="edgeStyle=orthogonalEdgeStyle;rounded=0;orthogonalLoop=1;jettySize=auto;html=1;entryX=-0.002;entryY=0.934;entryDx=0;entryDy=0;entryPerimeter=0;" parent="1" source="sF0zuf--0xOJBWbBseAl-102" target="sF0zuf--0xOJBWbBseAl-77" edge="1">
          <mxGeometry relative="1" as="geometry">
            <Array as="points">
              <mxPoint x="1961" y="1266" />
              <mxPoint x="1961" y="1001" />
            </Array>
          </mxGeometry>
        </mxCell>
        <mxCell id="sF0zuf--0xOJBWbBseAl-105" style="edgeStyle=orthogonalEdgeStyle;rounded=0;orthogonalLoop=1;jettySize=auto;html=1;entryX=0.5;entryY=0;entryDx=0;entryDy=0;" parent="1" source="sF0zuf--0xOJBWbBseAl-107" target="sF0zuf--0xOJBWbBseAl-111" edge="1">
          <mxGeometry relative="1" as="geometry">
            <mxPoint x="2254" y="1434" as="targetPoint" />
          </mxGeometry>
        </mxCell>
        <mxCell id="sF0zuf--0xOJBWbBseAl-106" style="edgeStyle=orthogonalEdgeStyle;rounded=0;orthogonalLoop=1;jettySize=auto;html=1;entryX=0.5;entryY=0;entryDx=0;entryDy=0;" parent="1" source="sF0zuf--0xOJBWbBseAl-107" target="sF0zuf--0xOJBWbBseAl-122" edge="1">
          <mxGeometry relative="1" as="geometry">
            <mxPoint x="1866.9999999999998" y="1416" as="targetPoint" />
          </mxGeometry>
        </mxCell>
        <mxCell id="sF0zuf--0xOJBWbBseAl-107" value="if = 2" style="strokeWidth=2;html=1;shape=mxgraph.flowchart.decision;whiteSpace=wrap;labelBackgroundColor=none;fillColor=#A8DADC;strokeColor=#457B9D;fontColor=#1D3557;align=center;" parent="1" vertex="1">
          <mxGeometry x="2017.8199999999995" y="1328" width="106.37" height="60" as="geometry" />
        </mxCell>
        <mxCell id="sF0zuf--0xOJBWbBseAl-108" value="true" style="text;html=1;align=center;verticalAlign=middle;resizable=0;points=[];autosize=1;strokeColor=none;fillColor=none;fontColor=#1D3557;" parent="1" vertex="1">
          <mxGeometry x="2138.63" y="1325" width="40" height="30" as="geometry" />
        </mxCell>
        <mxCell id="sF0zuf--0xOJBWbBseAl-109" value="false" style="text;html=1;align=center;verticalAlign=middle;resizable=0;points=[];autosize=1;strokeColor=none;fillColor=none;fontColor=#1D3557;" parent="1" vertex="1">
          <mxGeometry x="1943.9999999999998" y="1325" width="50" height="30" as="geometry" />
        </mxCell>
        <mxCell id="sF0zuf--0xOJBWbBseAl-110" style="edgeStyle=orthogonalEdgeStyle;rounded=0;orthogonalLoop=1;jettySize=auto;html=1;" parent="1" source="sF0zuf--0xOJBWbBseAl-111" target="sF0zuf--0xOJBWbBseAl-114" edge="1">
          <mxGeometry relative="1" as="geometry" />
        </mxCell>
        <mxCell id="sF0zuf--0xOJBWbBseAl-111" value="&lt;span style=&quot;font-size: 11px;&quot;&gt;Output =&quot;Masukan nomor&amp;nbsp;&lt;/span&gt;&lt;div&gt;&lt;span style=&quot;background-color: initial; font-size: 11px;&quot;&gt;item yang ingin diubah &quot;&lt;/span&gt;&lt;/div&gt;" style="shape=parallelogram;perimeter=parallelogramPerimeter;whiteSpace=wrap;html=1;fixedSize=1;fillColor=#A8DADC;strokeColor=#457B9D;fontColor=#1D3557;strokeWidth=2;labelBackgroundColor=none;align=center;" parent="1" vertex="1">
          <mxGeometry x="2156" y="1419" width="162" height="62" as="geometry" />
        </mxCell>
        <mxCell id="sF0zuf--0xOJBWbBseAl-113" style="edgeStyle=orthogonalEdgeStyle;rounded=0;orthogonalLoop=1;jettySize=auto;html=1;" parent="1" source="sF0zuf--0xOJBWbBseAl-114" target="sF0zuf--0xOJBWbBseAl-124" edge="1">
          <mxGeometry relative="1" as="geometry">
            <mxPoint x="2237" y="1604" as="targetPoint" />
          </mxGeometry>
        </mxCell>
        <mxCell id="sF0zuf--0xOJBWbBseAl-114" value="&lt;font style=&quot;vertical-align: inherit;&quot;&gt;&lt;font style=&quot;vertical-align: inherit;&quot;&gt;Input = Nomor&lt;/font&gt;&lt;/font&gt;" style="shape=parallelogram;perimeter=parallelogramPerimeter;whiteSpace=wrap;html=1;fixedSize=1;fillColor=#A8DADC;strokeColor=#457B9D;fontColor=#1D3557;strokeWidth=2;labelBackgroundColor=none;" parent="1" vertex="1">
          <mxGeometry x="2177" y="1514.0049999999999" width="120" height="60" as="geometry" />
        </mxCell>
        <mxCell id="sF0zuf--0xOJBWbBseAl-122" value="&lt;span style=&quot;font-size: 11px;&quot;&gt;Output =&quot;Nomor item&amp;nbsp;&lt;/span&gt;&lt;div&gt;&lt;span style=&quot;background-color: initial; font-size: 11px;&quot;&gt;tidak valid &quot;&lt;/span&gt;&lt;/div&gt;" style="shape=parallelogram;perimeter=parallelogramPerimeter;whiteSpace=wrap;html=1;fixedSize=1;fillColor=#A8DADC;strokeColor=#457B9D;fontColor=#1D3557;strokeWidth=2;labelBackgroundColor=none;align=center;" parent="1" vertex="1">
          <mxGeometry x="1784.9999999999998" y="1417" width="162" height="62" as="geometry" />
        </mxCell>
        <mxCell id="sF0zuf--0xOJBWbBseAl-126" style="edgeStyle=orthogonalEdgeStyle;rounded=0;orthogonalLoop=1;jettySize=auto;html=1;entryX=0.5;entryY=0;entryDx=0;entryDy=0;" parent="1" source="sF0zuf--0xOJBWbBseAl-124" target="sF0zuf--0xOJBWbBseAl-125" edge="1">
          <mxGeometry relative="1" as="geometry" />
        </mxCell>
        <mxCell id="sF0zuf--0xOJBWbBseAl-124" value="&lt;span style=&quot;font-size: 11px;&quot;&gt;Output =&quot;Masukan nama&amp;nbsp;&lt;/span&gt;&lt;div&gt;&lt;span style=&quot;background-color: initial; font-size: 11px;&quot;&gt;baru &quot;&lt;/span&gt;&lt;/div&gt;" style="shape=parallelogram;perimeter=parallelogramPerimeter;whiteSpace=wrap;html=1;fixedSize=1;fillColor=#A8DADC;strokeColor=#457B9D;fontColor=#1D3557;strokeWidth=2;labelBackgroundColor=none;align=center;" parent="1" vertex="1">
          <mxGeometry x="2159" y="1607" width="157" height="53" as="geometry" />
        </mxCell>
        <mxCell id="sF0zuf--0xOJBWbBseAl-134" style="edgeStyle=orthogonalEdgeStyle;rounded=0;orthogonalLoop=1;jettySize=auto;html=1;entryX=0.5;entryY=0;entryDx=0;entryDy=0;" parent="1" source="sF0zuf--0xOJBWbBseAl-125" target="sF0zuf--0xOJBWbBseAl-128" edge="1">
          <mxGeometry relative="1" as="geometry" />
        </mxCell>
        <mxCell id="sF0zuf--0xOJBWbBseAl-125" value="Input = nama" style="shape=parallelogram;perimeter=parallelogramPerimeter;whiteSpace=wrap;html=1;fixedSize=1;fillColor=#A8DADC;strokeColor=#457B9D;fontColor=#1D3557;strokeWidth=2;labelBackgroundColor=none;" parent="1" vertex="1">
          <mxGeometry x="2177" y="1690.0049999999999" width="120" height="60" as="geometry" />
        </mxCell>
        <mxCell id="sF0zuf--0xOJBWbBseAl-127" style="edgeStyle=orthogonalEdgeStyle;rounded=0;orthogonalLoop=1;jettySize=auto;html=1;" parent="1" source="sF0zuf--0xOJBWbBseAl-128" target="sF0zuf--0xOJBWbBseAl-130" edge="1">
          <mxGeometry relative="1" as="geometry" />
        </mxCell>
        <mxCell id="sF0zuf--0xOJBWbBseAl-128" value="&lt;span style=&quot;font-size: 11px;&quot;&gt;Output = &quot;Masukan harga&lt;/span&gt;&lt;div&gt;&lt;span style=&quot;background-color: initial; font-size: 11px;&quot;&gt;baru &quot;&lt;/span&gt;&lt;/div&gt;" style="shape=parallelogram;perimeter=parallelogramPerimeter;whiteSpace=wrap;html=1;fixedSize=1;fillColor=#A8DADC;strokeColor=#457B9D;fontColor=#1D3557;strokeWidth=2;labelBackgroundColor=none;align=center;" parent="1" vertex="1">
          <mxGeometry x="2156" y="1780" width="162" height="62" as="geometry" />
        </mxCell>
        <mxCell id="sF0zuf--0xOJBWbBseAl-129" style="edgeStyle=orthogonalEdgeStyle;rounded=0;orthogonalLoop=1;jettySize=auto;html=1;entryX=0.5;entryY=0;entryDx=0;entryDy=0;" parent="1" source="sF0zuf--0xOJBWbBseAl-130" target="sF0zuf--0xOJBWbBseAl-132" edge="1">
          <mxGeometry relative="1" as="geometry" />
        </mxCell>
        <mxCell id="sF0zuf--0xOJBWbBseAl-130" value="Input = harga" style="shape=parallelogram;perimeter=parallelogramPerimeter;whiteSpace=wrap;html=1;fixedSize=1;fillColor=#A8DADC;strokeColor=#457B9D;fontColor=#1D3557;strokeWidth=2;labelBackgroundColor=none;" parent="1" vertex="1">
          <mxGeometry x="2177" y="1875.0049999999999" width="120" height="60" as="geometry" />
        </mxCell>
        <mxCell id="sF0zuf--0xOJBWbBseAl-131" value="" style="edgeStyle=orthogonalEdgeStyle;rounded=0;orthogonalLoop=1;jettySize=auto;html=1;" parent="1" source="sF0zuf--0xOJBWbBseAl-132" target="sF0zuf--0xOJBWbBseAl-133" edge="1">
          <mxGeometry relative="1" as="geometry" />
        </mxCell>
        <mxCell id="sF0zuf--0xOJBWbBseAl-132" value="&lt;font style=&quot;vertical-align: inherit;&quot;&gt;&lt;font style=&quot;vertical-align: inherit;&quot;&gt;&lt;font style=&quot;vertical-align: inherit;&quot;&gt;&lt;font style=&quot;vertical-align: inherit;&quot;&gt;menu [Nomor] = nama:harga&amp;nbsp;&lt;/font&gt;&lt;/font&gt;&lt;/font&gt;&lt;/font&gt;" style="whiteSpace=wrap;html=1;fillColor=#A8DADC;strokeColor=#457B9D;fontColor=#1D3557;strokeWidth=2;labelBackgroundColor=none;" parent="1" vertex="1">
          <mxGeometry x="2177" y="1970" width="120" height="60" as="geometry" />
        </mxCell>
        <mxCell id="sF0zuf--0xOJBWbBseAl-137" style="edgeStyle=orthogonalEdgeStyle;rounded=0;orthogonalLoop=1;jettySize=auto;html=1;" parent="1" source="sF0zuf--0xOJBWbBseAl-133" target="sF0zuf--0xOJBWbBseAl-77" edge="1">
          <mxGeometry relative="1" as="geometry">
            <Array as="points">
              <mxPoint x="2571" y="2091" />
              <mxPoint x="2571" y="970" />
            </Array>
          </mxGeometry>
        </mxCell>
        <mxCell id="sF0zuf--0xOJBWbBseAl-133" value="&lt;span style=&quot;font-size: 11px;&quot;&gt;Output =&quot;Makanan /&amp;nbsp;&lt;/span&gt;&lt;div&gt;&lt;span style=&quot;background-color: initial; font-size: 11px;&quot;&gt;Minuman berhasil&amp;nbsp;&lt;/span&gt;&lt;/div&gt;&lt;div&gt;&lt;span style=&quot;background-color: initial; font-size: 11px;&quot;&gt;diubah &quot;&lt;/span&gt;&lt;/div&gt;" style="shape=parallelogram;perimeter=parallelogramPerimeter;whiteSpace=wrap;html=1;fixedSize=1;fillColor=#A8DADC;strokeColor=#457B9D;fontColor=#1D3557;strokeWidth=2;labelBackgroundColor=none;align=center;" parent="1" vertex="1">
          <mxGeometry x="2156" y="2060" width="162" height="62" as="geometry" />
        </mxCell>
        <mxCell id="sF0zuf--0xOJBWbBseAl-138" style="edgeStyle=orthogonalEdgeStyle;rounded=0;orthogonalLoop=1;jettySize=auto;html=1;entryX=0.5;entryY=0;entryDx=0;entryDy=0;" parent="1" source="sF0zuf--0xOJBWbBseAl-140" target="sF0zuf--0xOJBWbBseAl-143" edge="1">
          <mxGeometry relative="1" as="geometry">
            <mxPoint x="2049" y="1631" as="targetPoint" />
          </mxGeometry>
        </mxCell>
        <mxCell id="sF0zuf--0xOJBWbBseAl-139" style="edgeStyle=orthogonalEdgeStyle;rounded=0;orthogonalLoop=1;jettySize=auto;html=1;entryX=0.5;entryY=0;entryDx=0;entryDy=0;" parent="1" source="sF0zuf--0xOJBWbBseAl-140" target="sF0zuf--0xOJBWbBseAl-144" edge="1">
          <mxGeometry relative="1" as="geometry">
            <mxPoint x="1661.9999999999998" y="1613" as="targetPoint" />
          </mxGeometry>
        </mxCell>
        <mxCell id="sF0zuf--0xOJBWbBseAl-140" value="if = 3" style="strokeWidth=2;html=1;shape=mxgraph.flowchart.decision;whiteSpace=wrap;labelBackgroundColor=none;fillColor=#A8DADC;strokeColor=#457B9D;fontColor=#1D3557;align=center;" parent="1" vertex="1">
          <mxGeometry x="1812.8199999999995" y="1525" width="106.37" height="60" as="geometry" />
        </mxCell>
        <mxCell id="sF0zuf--0xOJBWbBseAl-141" value="true" style="text;html=1;align=center;verticalAlign=middle;resizable=0;points=[];autosize=1;strokeColor=none;fillColor=none;fontColor=#1D3557;" parent="1" vertex="1">
          <mxGeometry x="1933.6299999999999" y="1522" width="40" height="30" as="geometry" />
        </mxCell>
        <mxCell id="sF0zuf--0xOJBWbBseAl-142" value="false" style="text;html=1;align=center;verticalAlign=middle;resizable=0;points=[];autosize=1;strokeColor=none;fillColor=none;fontColor=#1D3557;" parent="1" vertex="1">
          <mxGeometry x="1738.9999999999998" y="1522" width="50" height="30" as="geometry" />
        </mxCell>
        <mxCell id="sF0zuf--0xOJBWbBseAl-149" style="edgeStyle=orthogonalEdgeStyle;rounded=0;orthogonalLoop=1;jettySize=auto;html=1;" parent="1" source="sF0zuf--0xOJBWbBseAl-143" target="sF0zuf--0xOJBWbBseAl-148" edge="1">
          <mxGeometry relative="1" as="geometry" />
        </mxCell>
        <mxCell id="sF0zuf--0xOJBWbBseAl-143" value="&lt;span style=&quot;font-size: 11px;&quot;&gt;Output =&quot;Masukan nomor&amp;nbsp;&lt;/span&gt;&lt;div&gt;&lt;span style=&quot;background-color: initial; font-size: 11px;&quot;&gt;item yang ingin dihapus &quot;&lt;/span&gt;&lt;/div&gt;" style="shape=parallelogram;perimeter=parallelogramPerimeter;whiteSpace=wrap;html=1;fixedSize=1;fillColor=#A8DADC;strokeColor=#457B9D;fontColor=#1D3557;strokeWidth=2;labelBackgroundColor=none;align=center;" parent="1" vertex="1">
          <mxGeometry x="1950.9999999999998" y="1616" width="162" height="62" as="geometry" />
        </mxCell>
        <mxCell id="sF0zuf--0xOJBWbBseAl-144" value="&lt;span style=&quot;font-size: 11px;&quot;&gt;Output =&quot;Nomor item&amp;nbsp;&lt;/span&gt;&lt;div&gt;&lt;span style=&quot;background-color: initial; font-size: 11px;&quot;&gt;tidak valid &quot;&lt;/span&gt;&lt;/div&gt;" style="shape=parallelogram;perimeter=parallelogramPerimeter;whiteSpace=wrap;html=1;fixedSize=1;fillColor=#A8DADC;strokeColor=#457B9D;fontColor=#1D3557;strokeWidth=2;labelBackgroundColor=none;align=center;" parent="1" vertex="1">
          <mxGeometry x="1579.9999999999998" y="1616" width="162" height="62" as="geometry" />
        </mxCell>
        <mxCell id="sF0zuf--0xOJBWbBseAl-147" style="edgeStyle=orthogonalEdgeStyle;rounded=0;orthogonalLoop=1;jettySize=auto;html=1;entryX=0.5;entryY=0;entryDx=0;entryDy=0;entryPerimeter=0;" parent="1" source="sF0zuf--0xOJBWbBseAl-122" target="sF0zuf--0xOJBWbBseAl-140" edge="1">
          <mxGeometry relative="1" as="geometry">
            <mxPoint x="1866.0049999999992" y="1523" as="targetPoint" />
          </mxGeometry>
        </mxCell>
        <mxCell id="sF0zuf--0xOJBWbBseAl-151" style="edgeStyle=orthogonalEdgeStyle;rounded=0;orthogonalLoop=1;jettySize=auto;html=1;" parent="1" source="sF0zuf--0xOJBWbBseAl-148" target="sF0zuf--0xOJBWbBseAl-150" edge="1">
          <mxGeometry relative="1" as="geometry">
            <mxPoint x="2032" y="1790" as="targetPoint" />
          </mxGeometry>
        </mxCell>
        <mxCell id="sF0zuf--0xOJBWbBseAl-148" value="&lt;font style=&quot;vertical-align: inherit;&quot;&gt;&lt;font style=&quot;vertical-align: inherit;&quot;&gt;Input = Nomor&lt;/font&gt;&lt;/font&gt;" style="shape=parallelogram;perimeter=parallelogramPerimeter;whiteSpace=wrap;html=1;fixedSize=1;fillColor=#A8DADC;strokeColor=#457B9D;fontColor=#1D3557;strokeWidth=2;labelBackgroundColor=none;" parent="1" vertex="1">
          <mxGeometry x="1972" y="1705.0049999999999" width="120" height="60" as="geometry" />
        </mxCell>
        <mxCell id="sF0zuf--0xOJBWbBseAl-154" style="edgeStyle=orthogonalEdgeStyle;rounded=0;orthogonalLoop=1;jettySize=auto;html=1;" parent="1" source="sF0zuf--0xOJBWbBseAl-150" target="sF0zuf--0xOJBWbBseAl-153" edge="1">
          <mxGeometry relative="1" as="geometry" />
        </mxCell>
        <mxCell id="sF0zuf--0xOJBWbBseAl-150" value="&lt;font style=&quot;vertical-align: inherit;&quot;&gt;&lt;font style=&quot;vertical-align: inherit;&quot;&gt;menu.pop(Nomor)&amp;nbsp;&lt;/font&gt;&lt;/font&gt;" style="whiteSpace=wrap;html=1;fillColor=#A8DADC;strokeColor=#457B9D;fontColor=#1D3557;strokeWidth=2;labelBackgroundColor=none;" parent="1" vertex="1">
          <mxGeometry x="1972" y="1795" width="120" height="60" as="geometry" />
        </mxCell>
        <mxCell id="sF0zuf--0xOJBWbBseAl-155" style="edgeStyle=orthogonalEdgeStyle;rounded=0;orthogonalLoop=1;jettySize=auto;html=1;entryX=0.953;entryY=0.562;entryDx=0;entryDy=0;entryPerimeter=0;" parent="1" source="sF0zuf--0xOJBWbBseAl-153" target="sF0zuf--0xOJBWbBseAl-77" edge="1">
          <mxGeometry relative="1" as="geometry">
            <Array as="points">
              <mxPoint x="2032" y="2140" />
              <mxPoint x="2591" y="2140" />
              <mxPoint x="2591" y="960" />
            </Array>
            <mxPoint x="2570" y="960" as="targetPoint" />
          </mxGeometry>
        </mxCell>
        <mxCell id="sF0zuf--0xOJBWbBseAl-153" value="&lt;span style=&quot;font-size: 11px;&quot;&gt;Output =&quot;Makanan /&amp;nbsp;&lt;/span&gt;&lt;div&gt;&lt;span style=&quot;background-color: initial; font-size: 11px;&quot;&gt;Minuman berhasil&amp;nbsp;&lt;/span&gt;&lt;/div&gt;&lt;div&gt;&lt;span style=&quot;background-color: initial; font-size: 11px;&quot;&gt;dihapus &quot;&lt;/span&gt;&lt;/div&gt;" style="shape=parallelogram;perimeter=parallelogramPerimeter;whiteSpace=wrap;html=1;fixedSize=1;fillColor=#A8DADC;strokeColor=#457B9D;fontColor=#1D3557;strokeWidth=2;labelBackgroundColor=none;align=center;" parent="1" vertex="1">
          <mxGeometry x="1951" y="1894" width="162" height="62" as="geometry" />
        </mxCell>
        <mxCell id="sF0zuf--0xOJBWbBseAl-163" style="edgeStyle=orthogonalEdgeStyle;rounded=0;orthogonalLoop=1;jettySize=auto;html=1;entryX=0.5;entryY=0;entryDx=0;entryDy=0;" parent="1" source="sF0zuf--0xOJBWbBseAl-165" target="sF0zuf--0xOJBWbBseAl-168" edge="1">
          <mxGeometry relative="1" as="geometry">
            <mxPoint x="1843.9999999999998" y="1820" as="targetPoint" />
          </mxGeometry>
        </mxCell>
        <mxCell id="sF0zuf--0xOJBWbBseAl-164" style="edgeStyle=orthogonalEdgeStyle;rounded=0;orthogonalLoop=1;jettySize=auto;html=1;entryX=0.5;entryY=0;entryDx=0;entryDy=0;" parent="1" source="sF0zuf--0xOJBWbBseAl-165" target="sF0zuf--0xOJBWbBseAl-169" edge="1">
          <mxGeometry relative="1" as="geometry">
            <mxPoint x="1456.9999999999998" y="1802" as="targetPoint" />
          </mxGeometry>
        </mxCell>
        <mxCell id="sF0zuf--0xOJBWbBseAl-165" value="if = 4" style="strokeWidth=2;html=1;shape=mxgraph.flowchart.decision;whiteSpace=wrap;labelBackgroundColor=none;fillColor=#A8DADC;strokeColor=#457B9D;fontColor=#1D3557;align=center;" parent="1" vertex="1">
          <mxGeometry x="1607.8199999999995" y="1714" width="106.37" height="60" as="geometry" />
        </mxCell>
        <mxCell id="sF0zuf--0xOJBWbBseAl-166" value="true" style="text;html=1;align=center;verticalAlign=middle;resizable=0;points=[];autosize=1;strokeColor=none;fillColor=none;fontColor=#1D3557;" parent="1" vertex="1">
          <mxGeometry x="1728.6299999999999" y="1711" width="40" height="30" as="geometry" />
        </mxCell>
        <mxCell id="sF0zuf--0xOJBWbBseAl-167" value="false" style="text;html=1;align=center;verticalAlign=middle;resizable=0;points=[];autosize=1;strokeColor=none;fillColor=none;fontColor=#1D3557;" parent="1" vertex="1">
          <mxGeometry x="1533.9999999999998" y="1711" width="50" height="30" as="geometry" />
        </mxCell>
        <mxCell id="sF0zuf--0xOJBWbBseAl-168" value="&lt;span style=&quot;font-size: 11px;&quot;&gt;Output =&quot;Items =&lt;/span&gt;&lt;div&gt;&lt;span style=&quot;font-size: 11px;&quot;&gt;&amp;nbsp;[nama,harga]&quot;&lt;/span&gt;&lt;/div&gt;" style="shape=parallelogram;perimeter=parallelogramPerimeter;whiteSpace=wrap;html=1;fixedSize=1;fillColor=#A8DADC;strokeColor=#457B9D;fontColor=#1D3557;strokeWidth=2;labelBackgroundColor=none;align=center;" parent="1" vertex="1">
          <mxGeometry x="1741" y="1805" width="167" height="62" as="geometry" />
        </mxCell>
        <mxCell id="sF0zuf--0xOJBWbBseAl-179" style="edgeStyle=orthogonalEdgeStyle;rounded=0;orthogonalLoop=1;jettySize=auto;html=1;" parent="1" source="sF0zuf--0xOJBWbBseAl-169" target="sF0zuf--0xOJBWbBseAl-174" edge="1">
          <mxGeometry relative="1" as="geometry" />
        </mxCell>
        <mxCell id="sF0zuf--0xOJBWbBseAl-169" value="&lt;span style=&quot;font-size: 11px;&quot;&gt;Output =&quot;Nomor item&amp;nbsp;&lt;/span&gt;&lt;div&gt;&lt;span style=&quot;background-color: initial; font-size: 11px;&quot;&gt;tidak valid &quot;&lt;/span&gt;&lt;/div&gt;" style="shape=parallelogram;perimeter=parallelogramPerimeter;whiteSpace=wrap;html=1;fixedSize=1;fillColor=#A8DADC;strokeColor=#457B9D;fontColor=#1D3557;strokeWidth=2;labelBackgroundColor=none;align=center;" parent="1" vertex="1">
          <mxGeometry x="1374.9999999999998" y="1805" width="162" height="62" as="geometry" />
        </mxCell>
        <mxCell id="sF0zuf--0xOJBWbBseAl-170" style="edgeStyle=orthogonalEdgeStyle;rounded=0;orthogonalLoop=1;jettySize=auto;html=1;entryX=0.5;entryY=0;entryDx=0;entryDy=0;entryPerimeter=0;" parent="1" source="sF0zuf--0xOJBWbBseAl-144" target="sF0zuf--0xOJBWbBseAl-165" edge="1">
          <mxGeometry relative="1" as="geometry" />
        </mxCell>
        <mxCell id="sF0zuf--0xOJBWbBseAl-171" style="edgeStyle=orthogonalEdgeStyle;rounded=0;orthogonalLoop=1;jettySize=auto;html=1;entryX=0.967;entryY=0.381;entryDx=0;entryDy=0;entryPerimeter=0;" parent="1" source="sF0zuf--0xOJBWbBseAl-168" target="sF0zuf--0xOJBWbBseAl-77" edge="1">
          <mxGeometry relative="1" as="geometry">
            <mxPoint x="2371" y="941" as="targetPoint" />
            <Array as="points">
              <mxPoint x="1825" y="2170" />
              <mxPoint x="2621" y="2170" />
              <mxPoint x="2621" y="940" />
            </Array>
          </mxGeometry>
        </mxCell>
        <mxCell id="sF0zuf--0xOJBWbBseAl-172" style="edgeStyle=orthogonalEdgeStyle;rounded=0;orthogonalLoop=1;jettySize=auto;html=1;entryX=0.5;entryY=0;entryDx=0;entryDy=0;" parent="1" source="sF0zuf--0xOJBWbBseAl-174" target="sF0zuf--0xOJBWbBseAl-177" edge="1">
          <mxGeometry relative="1" as="geometry">
            <mxPoint x="1639.9999999999998" y="2003" as="targetPoint" />
          </mxGeometry>
        </mxCell>
        <mxCell id="sF0zuf--0xOJBWbBseAl-173" style="edgeStyle=orthogonalEdgeStyle;rounded=0;orthogonalLoop=1;jettySize=auto;html=1;entryX=0.5;entryY=0;entryDx=0;entryDy=0;" parent="1" source="sF0zuf--0xOJBWbBseAl-174" edge="1">
          <mxGeometry relative="1" as="geometry">
            <mxPoint x="1252" y="1988" as="targetPoint" />
          </mxGeometry>
        </mxCell>
        <mxCell id="sF0zuf--0xOJBWbBseAl-174" value="if = 5" style="strokeWidth=2;html=1;shape=mxgraph.flowchart.decision;whiteSpace=wrap;labelBackgroundColor=none;fillColor=#A8DADC;strokeColor=#457B9D;fontColor=#1D3557;align=center;" parent="1" vertex="1">
          <mxGeometry x="1402.8199999999995" y="1897" width="106.37" height="60" as="geometry" />
        </mxCell>
        <mxCell id="sF0zuf--0xOJBWbBseAl-175" value="true" style="text;html=1;align=center;verticalAlign=middle;resizable=0;points=[];autosize=1;strokeColor=none;fillColor=none;fontColor=#1D3557;" parent="1" vertex="1">
          <mxGeometry x="1524.6299999999999" y="1894" width="40" height="30" as="geometry" />
        </mxCell>
        <mxCell id="sF0zuf--0xOJBWbBseAl-176" value="false" style="text;html=1;align=center;verticalAlign=middle;resizable=0;points=[];autosize=1;strokeColor=none;fillColor=none;fontColor=#1D3557;" parent="1" vertex="1">
          <mxGeometry x="1329.9999999999998" y="1894" width="50" height="30" as="geometry" />
        </mxCell>
        <mxCell id="sF0zuf--0xOJBWbBseAl-182" style="edgeStyle=orthogonalEdgeStyle;rounded=0;orthogonalLoop=1;jettySize=auto;html=1;entryX=1;entryY=0.5;entryDx=0;entryDy=0;" parent="1" source="sF0zuf--0xOJBWbBseAl-177" target="m-LSLCiGILIb_iJFjQq9-4" edge="1">
          <mxGeometry relative="1" as="geometry">
            <Array as="points">
              <mxPoint x="1621" y="2220" />
              <mxPoint x="2641" y="2220" />
              <mxPoint x="2641" y="182" />
            </Array>
          </mxGeometry>
        </mxCell>
        <mxCell id="sF0zuf--0xOJBWbBseAl-177" value="&lt;span style=&quot;font-size: 11px;&quot;&gt;Output =&quot;Terimakasih&lt;/span&gt;&lt;div&gt;&lt;span style=&quot;background-color: initial; font-size: 11px;&quot;&gt;jangan lupa berkunjung&amp;nbsp;&lt;/span&gt;&lt;/div&gt;&lt;div&gt;&lt;span style=&quot;background-color: initial; font-size: 11px;&quot;&gt;lagi yaa&quot;&lt;/span&gt;&lt;/div&gt;" style="shape=parallelogram;perimeter=parallelogramPerimeter;whiteSpace=wrap;html=1;fixedSize=1;fillColor=#A8DADC;strokeColor=#457B9D;fontColor=#1D3557;strokeWidth=2;labelBackgroundColor=none;align=center;" parent="1" vertex="1">
          <mxGeometry x="1537" y="1988" width="167" height="62" as="geometry" />
        </mxCell>
        <mxCell id="sF0zuf--0xOJBWbBseAl-197" style="edgeStyle=orthogonalEdgeStyle;rounded=0;orthogonalLoop=1;jettySize=auto;html=1;entryX=1;entryY=0.5;entryDx=0;entryDy=0;" parent="1" source="sF0zuf--0xOJBWbBseAl-183" target="sF0zuf--0xOJBWbBseAl-186" edge="1">
          <mxGeometry relative="1" as="geometry" />
        </mxCell>
        <mxCell id="sF0zuf--0xOJBWbBseAl-183" value="Status = Pembeli" style="strokeWidth=2;html=1;shape=mxgraph.flowchart.decision;whiteSpace=wrap;labelBackgroundColor=none;fillColor=#A8DADC;strokeColor=#457B9D;fontColor=#1D3557;align=center;" parent="1" vertex="1">
          <mxGeometry x="1756.81" y="808.5" width="131.19" height="74" as="geometry" />
        </mxCell>
        <mxCell id="sF0zuf--0xOJBWbBseAl-189" style="edgeStyle=orthogonalEdgeStyle;rounded=0;orthogonalLoop=1;jettySize=auto;html=1;entryX=0.5;entryY=0;entryDx=0;entryDy=0;" parent="1" source="sF0zuf--0xOJBWbBseAl-186" target="sF0zuf--0xOJBWbBseAl-188" edge="1">
          <mxGeometry relative="1" as="geometry">
            <mxPoint x="1134.19" y="962" as="targetPoint" />
          </mxGeometry>
        </mxCell>
        <mxCell id="sF0zuf--0xOJBWbBseAl-186" value="&lt;font face=&quot;Verdana&quot;&gt;Output =&amp;nbsp;&lt;/font&gt;&lt;div&gt;&lt;font face=&quot;Gwa8SxlCsdu1uKtJ1fb-&quot;&gt;&quot; Sistem Pembeli&lt;/font&gt;&lt;/div&gt;&lt;div&gt;&lt;font face=&quot;Gwa8SxlCsdu1uKtJ1fb-&quot;&gt;1. Beli makanan/minuman&lt;/font&gt;&lt;/div&gt;&lt;div&gt;&lt;font face=&quot;Gwa8SxlCsdu1uKtJ1fb-&quot;&gt;2. Lihat makanan/minuman&lt;/font&gt;&lt;/div&gt;&lt;div&gt;&lt;font face=&quot;Gwa8SxlCsdu1uKtJ1fb-&quot;&gt;3. Keluar&amp;nbsp;&lt;/font&gt;&lt;span style=&quot;background-color: initial; font-family: Gwa8SxlCsdu1uKtJ1fb-;&quot;&gt;&quot;&lt;/span&gt;&lt;/div&gt;" style="shape=parallelogram;perimeter=parallelogramPerimeter;whiteSpace=wrap;html=1;fixedSize=1;fillColor=#A8DADC;strokeColor=#457B9D;fontColor=#1D3557;strokeWidth=2;labelBackgroundColor=none;align=center;" parent="1" vertex="1">
          <mxGeometry x="1043.63" y="807.5" width="180" height="77" as="geometry" />
        </mxCell>
        <mxCell id="sF0zuf--0xOJBWbBseAl-188" value="Input = 1/2/3" style="shape=parallelogram;perimeter=parallelogramPerimeter;whiteSpace=wrap;html=1;fixedSize=1;fillColor=#A8DADC;strokeColor=#457B9D;fontColor=#1D3557;strokeWidth=2;labelBackgroundColor=none;" parent="1" vertex="1">
          <mxGeometry x="1073.63" y="969.0049999999999" width="120" height="60" as="geometry" />
        </mxCell>
        <mxCell id="sF0zuf--0xOJBWbBseAl-190" style="edgeStyle=orthogonalEdgeStyle;rounded=0;orthogonalLoop=1;jettySize=auto;html=1;entryX=0.5;entryY=0;entryDx=0;entryDy=0;" parent="1" source="sF0zuf--0xOJBWbBseAl-192" target="sF0zuf--0xOJBWbBseAl-195" edge="1">
          <mxGeometry relative="1" as="geometry">
            <mxPoint x="1317" y="1171" as="targetPoint" />
          </mxGeometry>
        </mxCell>
        <mxCell id="sF0zuf--0xOJBWbBseAl-191" style="edgeStyle=orthogonalEdgeStyle;rounded=0;orthogonalLoop=1;jettySize=auto;html=1;" parent="1" source="sF0zuf--0xOJBWbBseAl-192" target="sF0zuf--0xOJBWbBseAl-216" edge="1">
          <mxGeometry relative="1" as="geometry">
            <mxPoint x="930" y="1153" as="targetPoint" />
          </mxGeometry>
        </mxCell>
        <mxCell id="sF0zuf--0xOJBWbBseAl-192" value="if = 1" style="strokeWidth=2;html=1;shape=mxgraph.flowchart.decision;whiteSpace=wrap;labelBackgroundColor=none;fillColor=#A8DADC;strokeColor=#457B9D;fontColor=#1D3557;align=center;" parent="1" vertex="1">
          <mxGeometry x="1080.8199999999997" y="1065" width="106.37" height="60" as="geometry" />
        </mxCell>
        <mxCell id="sF0zuf--0xOJBWbBseAl-193" value="true" style="text;html=1;align=center;verticalAlign=middle;resizable=0;points=[];autosize=1;strokeColor=none;fillColor=none;fontColor=#1D3557;" parent="1" vertex="1">
          <mxGeometry x="1200.63" y="1062" width="40" height="30" as="geometry" />
        </mxCell>
        <mxCell id="sF0zuf--0xOJBWbBseAl-194" value="false" style="text;html=1;align=center;verticalAlign=middle;resizable=0;points=[];autosize=1;strokeColor=none;fillColor=none;fontColor=#1D3557;" parent="1" vertex="1">
          <mxGeometry x="1006" y="1062" width="50" height="30" as="geometry" />
        </mxCell>
        <mxCell id="sF0zuf--0xOJBWbBseAl-199" style="edgeStyle=orthogonalEdgeStyle;rounded=0;orthogonalLoop=1;jettySize=auto;html=1;entryX=0.5;entryY=0;entryDx=0;entryDy=0;" parent="1" source="sF0zuf--0xOJBWbBseAl-195" target="sF0zuf--0xOJBWbBseAl-198" edge="1">
          <mxGeometry relative="1" as="geometry" />
        </mxCell>
        <mxCell id="sF0zuf--0xOJBWbBseAl-195" value="&lt;span style=&quot;font-size: 11px;&quot;&gt;Output =&quot;Masukan nomor&lt;/span&gt;&lt;div&gt;&lt;span style=&quot;background-color: initial; font-size: 11px;&quot;&gt;item yang ingin dibeli&quot;&lt;/span&gt;&lt;/div&gt;" style="shape=parallelogram;perimeter=parallelogramPerimeter;whiteSpace=wrap;html=1;fixedSize=1;fillColor=#A8DADC;strokeColor=#457B9D;fontColor=#1D3557;strokeWidth=2;labelBackgroundColor=none;align=center;" parent="1" vertex="1">
          <mxGeometry x="1219" y="1156" width="162" height="62" as="geometry" />
        </mxCell>
        <mxCell id="sF0zuf--0xOJBWbBseAl-196" style="edgeStyle=orthogonalEdgeStyle;rounded=0;orthogonalLoop=1;jettySize=auto;html=1;entryX=0.5;entryY=0;entryDx=0;entryDy=0;entryPerimeter=0;" parent="1" source="sF0zuf--0xOJBWbBseAl-188" target="sF0zuf--0xOJBWbBseAl-192" edge="1">
          <mxGeometry relative="1" as="geometry" />
        </mxCell>
        <mxCell id="sF0zuf--0xOJBWbBseAl-201" style="edgeStyle=orthogonalEdgeStyle;rounded=0;orthogonalLoop=1;jettySize=auto;html=1;entryX=0.5;entryY=0;entryDx=0;entryDy=0;" parent="1" source="sF0zuf--0xOJBWbBseAl-198" target="sF0zuf--0xOJBWbBseAl-202" edge="1">
          <mxGeometry relative="1" as="geometry">
            <mxPoint x="1299" y="1355" as="targetPoint" />
          </mxGeometry>
        </mxCell>
        <mxCell id="sF0zuf--0xOJBWbBseAl-198" value="Input = Nomor" style="shape=parallelogram;perimeter=parallelogramPerimeter;whiteSpace=wrap;html=1;fixedSize=1;fillColor=#A8DADC;strokeColor=#457B9D;fontColor=#1D3557;strokeWidth=2;labelBackgroundColor=none;" parent="1" vertex="1">
          <mxGeometry x="1240" y="1251.0049999999999" width="120" height="60" as="geometry" />
        </mxCell>
        <mxCell id="sF0zuf--0xOJBWbBseAl-204" style="edgeStyle=orthogonalEdgeStyle;rounded=0;orthogonalLoop=1;jettySize=auto;html=1;" parent="1" source="sF0zuf--0xOJBWbBseAl-202" target="sF0zuf--0xOJBWbBseAl-203" edge="1">
          <mxGeometry relative="1" as="geometry" />
        </mxCell>
        <mxCell id="sF0zuf--0xOJBWbBseAl-202" value="&lt;span style=&quot;font-size: 11px;&quot;&gt;Output =&quot;menu[Nomor]&lt;/span&gt;&lt;div&gt;&lt;span style=&quot;background-color: initial; font-size: 11px;&quot;&gt;[&#39;harga&#39;] &quot;&lt;/span&gt;&lt;/div&gt;" style="shape=parallelogram;perimeter=parallelogramPerimeter;whiteSpace=wrap;html=1;fixedSize=1;fillColor=#A8DADC;strokeColor=#457B9D;fontColor=#1D3557;strokeWidth=2;labelBackgroundColor=none;align=center;" parent="1" vertex="1">
          <mxGeometry x="1219" y="1342" width="162" height="62" as="geometry" />
        </mxCell>
        <mxCell id="sF0zuf--0xOJBWbBseAl-209" style="edgeStyle=orthogonalEdgeStyle;rounded=0;orthogonalLoop=1;jettySize=auto;html=1;entryX=0.5;entryY=0;entryDx=0;entryDy=0;" parent="1" source="sF0zuf--0xOJBWbBseAl-203" target="sF0zuf--0xOJBWbBseAl-205" edge="1">
          <mxGeometry relative="1" as="geometry" />
        </mxCell>
        <mxCell id="sF0zuf--0xOJBWbBseAl-203" value="Input = total_harga" style="shape=parallelogram;perimeter=parallelogramPerimeter;whiteSpace=wrap;html=1;fixedSize=1;fillColor=#A8DADC;strokeColor=#457B9D;fontColor=#1D3557;strokeWidth=2;labelBackgroundColor=none;" parent="1" vertex="1">
          <mxGeometry x="1235" y="1435.01" width="130" height="60" as="geometry" />
        </mxCell>
        <mxCell id="sF0zuf--0xOJBWbBseAl-211" style="edgeStyle=orthogonalEdgeStyle;rounded=0;orthogonalLoop=1;jettySize=auto;html=1;" parent="1" source="sF0zuf--0xOJBWbBseAl-205" target="sF0zuf--0xOJBWbBseAl-210" edge="1">
          <mxGeometry relative="1" as="geometry" />
        </mxCell>
        <mxCell id="sF0zuf--0xOJBWbBseAl-205" value="saldo - =total_harga" style="whiteSpace=wrap;html=1;fillColor=#A8DADC;strokeColor=#457B9D;fontColor=#1D3557;strokeWidth=2;labelBackgroundColor=none;" parent="1" vertex="1">
          <mxGeometry x="1240" y="1531" width="120" height="60" as="geometry" />
        </mxCell>
        <mxCell id="sF0zuf--0xOJBWbBseAl-213" style="edgeStyle=orthogonalEdgeStyle;rounded=0;orthogonalLoop=1;jettySize=auto;html=1;" parent="1" source="sF0zuf--0xOJBWbBseAl-210" target="sF0zuf--0xOJBWbBseAl-212" edge="1">
          <mxGeometry relative="1" as="geometry" />
        </mxCell>
        <mxCell id="sF0zuf--0xOJBWbBseAl-210" value="Pembelian.append&lt;div&gt;(menu[Nomor])&lt;/div&gt;" style="whiteSpace=wrap;html=1;fillColor=#A8DADC;strokeColor=#457B9D;fontColor=#1D3557;strokeWidth=2;labelBackgroundColor=none;" parent="1" vertex="1">
          <mxGeometry x="1240" y="1624" width="120" height="60" as="geometry" />
        </mxCell>
        <mxCell id="sF0zuf--0xOJBWbBseAl-215" style="edgeStyle=orthogonalEdgeStyle;rounded=0;orthogonalLoop=1;jettySize=auto;html=1;" parent="1" source="sF0zuf--0xOJBWbBseAl-212" target="sF0zuf--0xOJBWbBseAl-186" edge="1">
          <mxGeometry relative="1" as="geometry">
            <Array as="points">
              <mxPoint x="1434" y="1744" />
              <mxPoint x="1434" y="870" />
            </Array>
          </mxGeometry>
        </mxCell>
        <mxCell id="sF0zuf--0xOJBWbBseAl-212" value="&lt;span style=&quot;font-size: 11px;&quot;&gt;Output =&quot;Anda telah&amp;nbsp;&lt;/span&gt;&lt;div&gt;&lt;span style=&quot;background-color: initial; font-size: 11px;&quot;&gt;membeli : {menu[Nomor]&lt;/span&gt;&lt;/div&gt;&lt;div&gt;&lt;span style=&quot;background-color: initial; font-size: 11px;&quot;&gt;[&#39;nama&#39;]}. dengan sisa&amp;nbsp;&lt;/span&gt;&lt;/div&gt;&lt;div&gt;&lt;span style=&quot;background-color: initial; font-size: 11px;&quot;&gt;saldo anda: Rp.{saldo} &quot;&lt;/span&gt;&lt;/div&gt;" style="shape=parallelogram;perimeter=parallelogramPerimeter;whiteSpace=wrap;html=1;fixedSize=1;fillColor=#A8DADC;strokeColor=#457B9D;fontColor=#1D3557;strokeWidth=2;labelBackgroundColor=none;align=center;" parent="1" vertex="1">
          <mxGeometry x="1219" y="1713" width="162" height="62" as="geometry" />
        </mxCell>
        <mxCell id="IDOufN4ZBI7UTXBDgmOd-10" value="" style="edgeStyle=orthogonalEdgeStyle;rounded=0;orthogonalLoop=1;jettySize=auto;html=1;entryX=0.004;entryY=0.924;entryDx=0;entryDy=0;entryPerimeter=0;" parent="1" target="sF0zuf--0xOJBWbBseAl-186" edge="1">
          <mxGeometry relative="1" as="geometry">
            <mxPoint x="1039.5" y="840" as="targetPoint" />
            <Array as="points">
              <mxPoint x="730" y="1187" />
              <mxPoint x="730" y="880" />
              <mxPoint x="1040" y="880" />
              <mxPoint x="1040" y="879" />
            </Array>
            <mxPoint x="853.4970938680613" y="1187.009009009009" as="sourcePoint" />
          </mxGeometry>
        </mxCell>
        <mxCell id="sF0zuf--0xOJBWbBseAl-216" value="&lt;span style=&quot;font-size: 11px;&quot;&gt;Output =&quot;Nomor item&amp;nbsp;&lt;/span&gt;&lt;div&gt;&lt;span style=&quot;background-color: initial; font-size: 11px;&quot;&gt;tidak valid &quot;&lt;/span&gt;&lt;/div&gt;" style="shape=parallelogram;perimeter=parallelogramPerimeter;whiteSpace=wrap;html=1;fixedSize=1;fillColor=#A8DADC;strokeColor=#457B9D;fontColor=#1D3557;strokeWidth=2;labelBackgroundColor=none;align=center;" parent="1" vertex="1">
          <mxGeometry x="843.9999999999998" y="1156" width="162" height="62" as="geometry" />
        </mxCell>
        <mxCell id="sF0zuf--0xOJBWbBseAl-217" style="edgeStyle=orthogonalEdgeStyle;rounded=0;orthogonalLoop=1;jettySize=auto;html=1;entryX=0.5;entryY=0;entryDx=0;entryDy=0;" parent="1" source="sF0zuf--0xOJBWbBseAl-219" edge="1">
          <mxGeometry relative="1" as="geometry">
            <mxPoint x="1088.5" y="1341" as="targetPoint" />
          </mxGeometry>
        </mxCell>
        <mxCell id="sF0zuf--0xOJBWbBseAl-218" style="edgeStyle=orthogonalEdgeStyle;rounded=0;orthogonalLoop=1;jettySize=auto;html=1;entryX=0.5;entryY=0;entryDx=0;entryDy=0;" parent="1" source="sF0zuf--0xOJBWbBseAl-219" target="sF0zuf--0xOJBWbBseAl-223" edge="1">
          <mxGeometry relative="1" as="geometry">
            <mxPoint x="720.9999999999998" y="1338" as="targetPoint" />
          </mxGeometry>
        </mxCell>
        <mxCell id="sF0zuf--0xOJBWbBseAl-219" value="if = 2" style="strokeWidth=2;html=1;shape=mxgraph.flowchart.decision;whiteSpace=wrap;labelBackgroundColor=none;fillColor=#A8DADC;strokeColor=#457B9D;fontColor=#1D3557;align=center;" parent="1" vertex="1">
          <mxGeometry x="871.8199999999995" y="1250" width="106.37" height="60" as="geometry" />
        </mxCell>
        <mxCell id="sF0zuf--0xOJBWbBseAl-220" value="true" style="text;html=1;align=center;verticalAlign=middle;resizable=0;points=[];autosize=1;strokeColor=none;fillColor=none;fontColor=#1D3557;" parent="1" vertex="1">
          <mxGeometry x="992.6299999999999" y="1247" width="40" height="30" as="geometry" />
        </mxCell>
        <mxCell id="sF0zuf--0xOJBWbBseAl-221" value="false" style="text;html=1;align=center;verticalAlign=middle;resizable=0;points=[];autosize=1;strokeColor=none;fillColor=none;fontColor=#1D3557;" parent="1" vertex="1">
          <mxGeometry x="797.9999999999998" y="1247" width="50" height="30" as="geometry" />
        </mxCell>
        <mxCell id="sF0zuf--0xOJBWbBseAl-223" value="&lt;span style=&quot;font-size: 11px;&quot;&gt;Output =&quot;Belum ada&amp;nbsp;&lt;/span&gt;&lt;div&gt;&lt;span style=&quot;background-color: initial; font-size: 11px;&quot;&gt;pembelian &quot;&lt;/span&gt;&lt;/div&gt;" style="shape=parallelogram;perimeter=parallelogramPerimeter;whiteSpace=wrap;html=1;fixedSize=1;fillColor=#A8DADC;strokeColor=#457B9D;fontColor=#1D3557;strokeWidth=2;labelBackgroundColor=none;align=center;" parent="1" vertex="1">
          <mxGeometry x="638.9999999999998" y="1341" width="162" height="62" as="geometry" />
        </mxCell>
        <mxCell id="sF0zuf--0xOJBWbBseAl-225" style="edgeStyle=orthogonalEdgeStyle;rounded=0;orthogonalLoop=1;jettySize=auto;html=1;entryX=0.5;entryY=0;entryDx=0;entryDy=0;entryPerimeter=0;" parent="1" source="sF0zuf--0xOJBWbBseAl-216" target="sF0zuf--0xOJBWbBseAl-219" edge="1">
          <mxGeometry relative="1" as="geometry" />
        </mxCell>
        <mxCell id="sF0zuf--0xOJBWbBseAl-230" style="edgeStyle=orthogonalEdgeStyle;rounded=0;orthogonalLoop=1;jettySize=auto;html=1;" parent="1" source="sF0zuf--0xOJBWbBseAl-226" target="sF0zuf--0xOJBWbBseAl-186" edge="1">
          <mxGeometry relative="1" as="geometry">
            <Array as="points">
              <mxPoint x="530" y="1468" />
              <mxPoint x="530" y="840" />
            </Array>
          </mxGeometry>
        </mxCell>
        <mxCell id="sF0zuf--0xOJBWbBseAl-226" value="&lt;span style=&quot;font-size: 11px;&quot;&gt;Output =&quot;{Item[&#39;nama&#39;]}-&lt;/span&gt;&lt;div&gt;&lt;span style=&quot;font-size: 11px;&quot;&gt;Harga: Rp.{item[&#39;harga&#39;]},&lt;/span&gt;&lt;/div&gt;&lt;div&gt;&lt;span style=&quot;font-size: 11px;&quot;&gt;total pembelian: Rp. {total}&quot;&lt;/span&gt;&lt;/div&gt;" style="shape=parallelogram;perimeter=parallelogramPerimeter;whiteSpace=wrap;html=1;fixedSize=1;fillColor=#A8DADC;strokeColor=#457B9D;fontColor=#1D3557;strokeWidth=2;labelBackgroundColor=none;align=center;" parent="1" vertex="1">
          <mxGeometry x="1003.5" y="1437.01" width="167" height="62" as="geometry" />
        </mxCell>
        <mxCell id="sF0zuf--0xOJBWbBseAl-229" style="edgeStyle=orthogonalEdgeStyle;rounded=0;orthogonalLoop=1;jettySize=auto;html=1;" parent="1" source="sF0zuf--0xOJBWbBseAl-227" target="sF0zuf--0xOJBWbBseAl-226" edge="1">
          <mxGeometry relative="1" as="geometry" />
        </mxCell>
        <mxCell id="sF0zuf--0xOJBWbBseAl-227" value="total +=item[&#39;harga&#39;]" style="whiteSpace=wrap;html=1;fillColor=#A8DADC;strokeColor=#457B9D;fontColor=#1D3557;strokeWidth=2;labelBackgroundColor=none;" parent="1" vertex="1">
          <mxGeometry x="1027" y="1341" width="120" height="60" as="geometry" />
        </mxCell>
        <mxCell id="sF0zuf--0xOJBWbBseAl-231" style="edgeStyle=orthogonalEdgeStyle;rounded=0;orthogonalLoop=1;jettySize=auto;html=1;entryX=0.021;entryY=0.679;entryDx=0;entryDy=0;entryPerimeter=0;" parent="1" source="sF0zuf--0xOJBWbBseAl-223" target="sF0zuf--0xOJBWbBseAl-186" edge="1">
          <mxGeometry relative="1" as="geometry">
            <Array as="points">
              <mxPoint x="570" y="1372" />
              <mxPoint x="570" y="860" />
            </Array>
            <mxPoint x="980" y="860" as="targetPoint" />
          </mxGeometry>
        </mxCell>
        <mxCell id="sF0zuf--0xOJBWbBseAl-232" style="edgeStyle=orthogonalEdgeStyle;rounded=0;orthogonalLoop=1;jettySize=auto;html=1;entryX=0.5;entryY=0;entryDx=0;entryDy=0;" parent="1" source="sF0zuf--0xOJBWbBseAl-234" target="sF0zuf--0xOJBWbBseAl-237" edge="1">
          <mxGeometry relative="1" as="geometry">
            <mxPoint x="901.9999999999998" y="1586" as="targetPoint" />
          </mxGeometry>
        </mxCell>
        <mxCell id="sF0zuf--0xOJBWbBseAl-233" style="edgeStyle=orthogonalEdgeStyle;rounded=0;orthogonalLoop=1;jettySize=auto;html=1;entryX=0.5;entryY=0;entryDx=0;entryDy=0;" parent="1" source="sF0zuf--0xOJBWbBseAl-234" edge="1">
          <mxGeometry relative="1" as="geometry">
            <mxPoint x="514" y="1571" as="targetPoint" />
          </mxGeometry>
        </mxCell>
        <mxCell id="sF0zuf--0xOJBWbBseAl-234" value="if = 3" style="strokeWidth=2;html=1;shape=mxgraph.flowchart.decision;whiteSpace=wrap;labelBackgroundColor=none;fillColor=#A8DADC;strokeColor=#457B9D;fontColor=#1D3557;align=center;" parent="1" vertex="1">
          <mxGeometry x="666.8199999999995" y="1485" width="106.37" height="60" as="geometry" />
        </mxCell>
        <mxCell id="sF0zuf--0xOJBWbBseAl-235" value="true" style="text;html=1;align=center;verticalAlign=middle;resizable=0;points=[];autosize=1;strokeColor=none;fillColor=none;fontColor=#1D3557;" parent="1" vertex="1">
          <mxGeometry x="789.6299999999999" y="1485" width="40" height="30" as="geometry" />
        </mxCell>
        <mxCell id="sF0zuf--0xOJBWbBseAl-236" value="false" style="text;html=1;align=center;verticalAlign=middle;resizable=0;points=[];autosize=1;strokeColor=none;fillColor=none;fontColor=#1D3557;" parent="1" vertex="1">
          <mxGeometry x="587.9999999999998" y="1484" width="50" height="30" as="geometry" />
        </mxCell>
        <mxCell id="sF0zuf--0xOJBWbBseAl-240" style="edgeStyle=orthogonalEdgeStyle;rounded=0;orthogonalLoop=1;jettySize=auto;html=1;exitX=0;exitY=0.75;exitDx=0;exitDy=0;entryX=0.183;entryY=0.13;entryDx=0;entryDy=0;entryPerimeter=0;" parent="1" source="sF0zuf--0xOJBWbBseAl-237" target="m-LSLCiGILIb_iJFjQq9-4" edge="1">
          <mxGeometry relative="1" as="geometry">
            <Array as="points">
              <mxPoint x="190" y="1730" />
              <mxPoint x="190" y="160" />
              <mxPoint x="2010" y="160" />
            </Array>
            <mxPoint x="450" y="1620" as="sourcePoint" />
            <mxPoint x="2010" y="160" as="targetPoint" />
          </mxGeometry>
        </mxCell>
        <mxCell id="sF0zuf--0xOJBWbBseAl-237" value="&lt;span style=&quot;font-size: 11px;&quot;&gt;Output =&quot;Terimakasih&lt;/span&gt;&lt;div&gt;&lt;span style=&quot;background-color: initial; font-size: 11px;&quot;&gt;jangan lupa berkunjung&amp;nbsp;&lt;/span&gt;&lt;/div&gt;&lt;div&gt;&lt;span style=&quot;background-color: initial; font-size: 11px;&quot;&gt;lagi yaa&quot;&lt;/span&gt;&lt;/div&gt;" style="shape=parallelogram;perimeter=parallelogramPerimeter;whiteSpace=wrap;html=1;fixedSize=1;fillColor=#A8DADC;strokeColor=#457B9D;fontColor=#1D3557;strokeWidth=2;labelBackgroundColor=none;align=center;" parent="1" vertex="1">
          <mxGeometry x="801" y="1684" width="167" height="62" as="geometry" />
        </mxCell>
        <mxCell id="sF0zuf--0xOJBWbBseAl-238" style="edgeStyle=orthogonalEdgeStyle;rounded=0;orthogonalLoop=1;jettySize=auto;html=1;entryX=0.5;entryY=0;entryDx=0;entryDy=0;entryPerimeter=0;" parent="1" source="sF0zuf--0xOJBWbBseAl-223" target="sF0zuf--0xOJBWbBseAl-234" edge="1">
          <mxGeometry relative="1" as="geometry" />
        </mxCell>
        <mxCell id="sF0zuf--0xOJBWbBseAl-241" value="&lt;font color=&quot;#000000&quot;&gt;End&lt;/font&gt;" style="strokeWidth=2;html=1;shape=mxgraph.flowchart.terminator;whiteSpace=wrap;align=center;fillColor=#A8DADC;strokeColor=#457B9D;fontStyle=1;labelBackgroundColor=none;fontColor=#1D3557;" parent="1" vertex="1">
          <mxGeometry x="2042" y="2465" width="80" height="30" as="geometry" />
        </mxCell>
        <mxCell id="sF0zuf--0xOJBWbBseAl-245" style="edgeStyle=orthogonalEdgeStyle;rounded=0;orthogonalLoop=1;jettySize=auto;html=1;entryX=0;entryY=0.5;entryDx=0;entryDy=0;entryPerimeter=0;" parent="1" source="sF0zuf--0xOJBWbBseAl-237" target="sF0zuf--0xOJBWbBseAl-241" edge="1">
          <mxGeometry relative="1" as="geometry">
            <Array as="points">
              <mxPoint x="980" y="1715" />
              <mxPoint x="980" y="2480" />
              <mxPoint x="2038" y="2480" />
            </Array>
          </mxGeometry>
        </mxCell>
        <mxCell id="sF0zuf--0xOJBWbBseAl-246" style="edgeStyle=orthogonalEdgeStyle;rounded=0;orthogonalLoop=1;jettySize=auto;html=1;" parent="1" source="sF0zuf--0xOJBWbBseAl-177" edge="1">
          <mxGeometry relative="1" as="geometry">
            <mxPoint x="1056" y="2033.9999999999995" as="sourcePoint" />
            <mxPoint x="1480" y="2480" as="targetPoint" />
          </mxGeometry>
        </mxCell>
        <mxCell id="IDOufN4ZBI7UTXBDgmOd-4" value="" style="edgeStyle=orthogonalEdgeStyle;rounded=0;orthogonalLoop=1;jettySize=auto;html=1;entryX=0.144;entryY=0.302;entryDx=0;entryDy=0;entryPerimeter=0;" parent="1" source="IDOufN4ZBI7UTXBDgmOd-1" target="m-LSLCiGILIb_iJFjQq9-4" edge="1">
          <mxGeometry relative="1" as="geometry">
            <mxPoint x="2010" y="170" as="targetPoint" />
            <Array as="points">
              <mxPoint x="1350" y="748" />
              <mxPoint x="1350" y="170" />
              <mxPoint x="1630" y="170" />
            </Array>
          </mxGeometry>
        </mxCell>
        <mxCell id="IDOufN4ZBI7UTXBDgmOd-1" value="&lt;span style=&quot;font-size: 11px;&quot;&gt;Output =&quot;Username dan&amp;nbsp;&lt;/span&gt;&lt;div&gt;&lt;span style=&quot;font-size: 11px;&quot;&gt;Password salah&quot;&lt;/span&gt;&lt;/div&gt;" style="shape=parallelogram;perimeter=parallelogramPerimeter;whiteSpace=wrap;html=1;fixedSize=1;fillColor=#A8DADC;strokeColor=#457B9D;fontColor=#1D3557;strokeWidth=2;labelBackgroundColor=none;align=center;" parent="1" vertex="1">
          <mxGeometry x="1392" y="718" width="150" height="60" as="geometry" />
        </mxCell>
        <mxCell id="IDOufN4ZBI7UTXBDgmOd-7" value="" style="edgeStyle=orthogonalEdgeStyle;rounded=0;orthogonalLoop=1;jettySize=auto;html=1;entryX=0.091;entryY=0.032;entryDx=0;entryDy=0;entryPerimeter=0;" parent="1" source="IDOufN4ZBI7UTXBDgmOd-2" target="sF0zuf--0xOJBWbBseAl-186" edge="1">
          <mxGeometry relative="1" as="geometry">
            <mxPoint x="790" y="840" as="targetPoint" />
            <Array as="points">
              <mxPoint x="340" y="1604" />
              <mxPoint x="340" y="810" />
            </Array>
          </mxGeometry>
        </mxCell>
        <mxCell id="IDOufN4ZBI7UTXBDgmOd-2" value="&lt;span style=&quot;font-size: 11px;&quot;&gt;Output =&quot;Username dan&amp;nbsp;&lt;/span&gt;&lt;div&gt;&lt;span style=&quot;font-size: 11px;&quot;&gt;Password salah&quot;&lt;/span&gt;&lt;/div&gt;" style="shape=parallelogram;perimeter=parallelogramPerimeter;whiteSpace=wrap;html=1;fixedSize=1;fillColor=#A8DADC;strokeColor=#457B9D;fontColor=#1D3557;strokeWidth=2;labelBackgroundColor=none;align=center;" parent="1" vertex="1">
          <mxGeometry x="438" y="1575" width="150" height="59" as="geometry" />
        </mxCell>
      </root>
    </mxGraphModel>
  </diagram>
</mxfile>
